<svg id="visual" viewBox="0 0 540 960" preserveAspectRatio="none" width="540" height="960" xmlns="http://www.w3.org/2000/svg" xmlns:xlink="http://www.w3.org/1999/xlink" version="1.1"><rect x="0" y="0" width="540" height="960" fill="#212529"></rect><defs><linearGradient id="grad1_0" x1="0%" y1="100%" x2="100%" y2="0%"><stop offset="30%" stop-color="#3872c2" stop-opacity="1"></stop><stop offset="70%" stop-color="#3872c2" stop-opacity="1"></stop></linearGradient></defs><defs><linearGradient id="grad1_1" x1="0%" y1="100%" x2="100%" y2="0%"><stop offset="30%" stop-color="#3872c2" stop-opacity="1"></stop><stop offset="70%" stop-color="#2d66a7" stop-opacity="1"></stop></linearGradient></defs><defs><linearGradient id="grad1_2" x1="0%" y1="100%" x2="100%" y2="0%"><stop offset="30%" stop-color="#27598c" stop-opacity="1"></stop><stop offset="70%" stop-color="#2d66a7" stop-opacity="1"></stop></linearGradient></defs><defs><linearGradient id="grad1_3" x1="0%" y1="100%" x2="100%" y2="0%"><stop offset="30%" stop-color="#27598c" stop-opacity="1"></stop><stop offset="70%" stop-color="#254c71" stop-opacity="1"></stop></linearGradient></defs><defs><linearGradient id="grad1_4" x1="0%" y1="100%" x2="100%" y2="0%"><stop offset="30%" stop-color="#253f58" stop-opacity="1"></stop><stop offset="70%" stop-color="#254c71" stop-opacity="1"></stop></linearGradient></defs><defs><linearGradient id="grad1_5" x1="0%" y1="100%" x2="100%" y2="0%"><stop offset="30%" stop-color="#253f58" stop-opacity="1"></stop><stop offset="70%" stop-color="#233240" stop-opacity="1"></stop></linearGradient></defs><defs><linearGradient id="grad1_6" x1="0%" y1="100%" x2="100%" y2="0%"><stop offset="30%" stop-color="#212529" stop-opacity="1"></stop><stop offset="70%" stop-color="#233240" stop-opacity="1"></stop></linearGradient></defs><defs><linearGradient id="grad2_0" x1="0%" y1="100%" x2="100%" y2="0%"><stop offset="30%" stop-color="#3872c2" stop-opacity="1"></stop><stop offset="70%" stop-color="#3872c2" stop-opacity="1"></stop></linearGradient></defs><defs><linearGradient id="grad2_1" x1="0%" y1="100%" x2="100%" y2="0%"><stop offset="30%" stop-color="#2d66a7" stop-opacity="1"></stop><stop offset="70%" stop-color="#3872c2" stop-opacity="1"></stop></linearGradient></defs><defs><linearGradient id="grad2_2" x1="0%" y1="100%" x2="100%" y2="0%"><stop offset="30%" stop-color="#2d66a7" stop-opacity="1"></stop><stop offset="70%" stop-color="#27598c" stop-opacity="1"></stop></linearGradient></defs><defs><linearGradient id="grad2_3" x1="0%" y1="100%" x2="100%" y2="0%"><stop offset="30%" stop-color="#254c71" stop-opacity="1"></stop><stop offset="70%" stop-color="#27598c" stop-opacity="1"></stop></linearGradient></defs><defs><linearGradient id="grad2_4" x1="0%" y1="100%" x2="100%" y2="0%"><stop offset="30%" stop-color="#254c71" stop-opacity="1"></stop><stop offset="70%" stop-color="#253f58" stop-opacity="1"></stop></linearGradient></defs><defs><linearGradient id="grad2_5" x1="0%" y1="100%" x2="100%" y2="0%"><stop offset="30%" stop-color="#233240" stop-opacity="1"></stop><stop offset="70%" stop-color="#253f58" stop-opacity="1"></stop></linearGradient></defs><defs><linearGradient id="grad2_6" x1="0%" y1="100%" x2="100%" y2="0%"><stop offset="30%" stop-color="#233240" stop-opacity="1"></stop><stop offset="70%" stop-color="#212529" stop-opacity="1"></stop></linearGradient></defs><g transform="translate(540, 960)"><path d="M-331 0C-335.6 -59.7 -340.2 -119.3 -321.3 -185.5C-302.4 -251.7 -260 -324.4 -202.5 -350.7C-145 -377.1 -72.5 -357 0 -337L0 0Z" fill="#222b34"></path><path d="M-283.7 0C-287.7 -51.1 -291.6 -102.3 -275.4 -159C-259.2 -215.7 -222.8 -278.1 -173.6 -300.6C-124.3 -323.2 -62.2 -306 0 -288.9L0 0Z" fill="#24384c"></path><path d="M-236.4 0C-239.7 -42.6 -243 -85.2 -229.5 -132.5C-216 -179.8 -185.7 -231.7 -144.6 -250.5C-103.6 -269.3 -51.8 -255 0 -240.7L0 0Z" fill="#254565"></path><path d="M-189.1 0C-191.8 -34.1 -194.4 -68.2 -183.6 -106C-172.8 -143.8 -148.6 -185.4 -115.7 -200.4C-82.9 -215.5 -41.4 -204 0 -192.6L0 0Z" fill="#26527e"></path><path d="M-141.9 0C-143.8 -25.6 -145.8 -51.1 -137.7 -79.5C-129.6 -107.9 -111.4 -139 -86.8 -150.3C-62.2 -161.6 -31.1 -153 0 -144.4L0 0Z" fill="#2a5f99"></path><path d="M-94.6 0C-95.9 -17 -97.2 -34.1 -91.8 -53C-86.4 -71.9 -74.3 -92.7 -57.9 -100.2C-41.4 -107.7 -20.7 -102 0 -96.3L0 0Z" fill="#326cb4"></path><path d="M-47.3 0C-47.9 -8.5 -48.6 -17 -45.9 -26.5C-43.2 -36 -37.1 -46.3 -28.9 -50.1C-20.7 -53.9 -10.4 -51 0 -48.1L0 0Z" fill="#3872c2"></path></g><g transform="translate(0, 0)"><path d="M327 0C331.4 58.4 335.9 116.8 317.8 183.5C299.8 250.2 259.2 325.1 202.5 350.7C145.8 376.4 72.9 352.7 0 329L0 0Z" fill="#222b34"></path><path d="M280.3 0C284.1 50.1 287.9 100.1 272.4 157.3C257 214.4 222.2 278.7 173.6 300.6C125 322.6 62.5 302.3 0 282L0 0Z" fill="#24384c"></path><path d="M233.6 0C236.7 41.7 239.9 83.4 227 131.1C214.1 178.7 185.2 232.2 144.6 250.5C104.1 268.8 52.1 251.9 0 235L0 0Z" fill="#254565"></path><path d="M186.9 0C189.4 33.4 191.9 66.8 181.6 104.9C171.3 143 148.1 185.8 115.7 200.4C83.3 215.1 41.7 201.5 0 188L0 0Z" fill="#26527e"></path><path d="M140.1 0C142 25 144 50.1 136.2 78.6C128.5 107.2 111.1 139.3 86.8 150.3C62.5 161.3 31.2 151.2 0 141L0 0Z" fill="#2a5f99"></path><path d="M93.4 0C94.7 16.7 96 33.4 90.8 52.4C85.7 71.5 74.1 92.9 57.9 100.2C41.7 107.5 20.8 100.8 0 94L0 0Z" fill="#326cb4"></path><path d="M46.7 0C47.3 8.3 48 16.7 45.4 26.2C42.8 35.7 37 46.4 28.9 50.1C20.8 53.8 10.4 50.4 0 47L0 0Z" fill="#3872c2"></path></g></svg>