<svg id="visual" viewBox="0 0 180 960" preserveAspectRatio="none" width="180" height="960" xmlns="http://www.w3.org/2000/svg" xmlns:xlink="http://www.w3.org/1999/xlink" version="1.1"><rect x="0" y="0" width="180" height="960" fill="#212529"></rect><defs><linearGradient id="grad1_0" x1="0%" y1="100%" x2="100%" y2="0%"><stop offset="30%" stop-color="#3872c2" stop-opacity="1"></stop><stop offset="70%" stop-color="#3872c2" stop-opacity="1"></stop></linearGradient></defs><defs><linearGradient id="grad1_1" x1="0%" y1="100%" x2="100%" y2="0%"><stop offset="30%" stop-color="#3872c2" stop-opacity="1"></stop><stop offset="70%" stop-color="#2d66a7" stop-opacity="1"></stop></linearGradient></defs><defs><linearGradient id="grad1_2" x1="0%" y1="100%" x2="100%" y2="0%"><stop offset="30%" stop-color="#27598c" stop-opacity="1"></stop><stop offset="70%" stop-color="#2d66a7" stop-opacity="1"></stop></linearGradient></defs><defs><linearGradient id="grad1_3" x1="0%" y1="100%" x2="100%" y2="0%"><stop offset="30%" stop-color="#27598c" stop-opacity="1"></stop><stop offset="70%" stop-color="#254c71" stop-opacity="1"></stop></linearGradient></defs><defs><linearGradient id="grad1_4" x1="0%" y1="100%" x2="100%" y2="0%"><stop offset="30%" stop-color="#253f58" stop-opacity="1"></stop><stop offset="70%" stop-color="#254c71" stop-opacity="1"></stop></linearGradient></defs><defs><linearGradient id="grad1_5" x1="0%" y1="100%" x2="100%" y2="0%"><stop offset="30%" stop-color="#253f58" stop-opacity="1"></stop><stop offset="70%" stop-color="#233240" stop-opacity="1"></stop></linearGradient></defs><defs><linearGradient id="grad1_6" x1="0%" y1="100%" x2="100%" y2="0%"><stop offset="30%" stop-color="#212529" stop-opacity="1"></stop><stop offset="70%" stop-color="#233240" stop-opacity="1"></stop></linearGradient></defs><defs><linearGradient id="grad2_0" x1="0%" y1="100%" x2="100%" y2="0%"><stop offset="30%" stop-color="#3872c2" stop-opacity="1"></stop><stop offset="70%" stop-color="#3872c2" stop-opacity="1"></stop></linearGradient></defs><defs><linearGradient id="grad2_1" x1="0%" y1="100%" x2="100%" y2="0%"><stop offset="30%" stop-color="#2d66a7" stop-opacity="1"></stop><stop offset="70%" stop-color="#3872c2" stop-opacity="1"></stop></linearGradient></defs><defs><linearGradient id="grad2_2" x1="0%" y1="100%" x2="100%" y2="0%"><stop offset="30%" stop-color="#2d66a7" stop-opacity="1"></stop><stop offset="70%" stop-color="#27598c" stop-opacity="1"></stop></linearGradient></defs><defs><linearGradient id="grad2_3" x1="0%" y1="100%" x2="100%" y2="0%"><stop offset="30%" stop-color="#254c71" stop-opacity="1"></stop><stop offset="70%" stop-color="#27598c" stop-opacity="1"></stop></linearGradient></defs><defs><linearGradient id="grad2_4" x1="0%" y1="100%" x2="100%" y2="0%"><stop offset="30%" stop-color="#254c71" stop-opacity="1"></stop><stop offset="70%" stop-color="#253f58" stop-opacity="1"></stop></linearGradient></defs><defs><linearGradient id="grad2_5" x1="0%" y1="100%" x2="100%" y2="0%"><stop offset="30%" stop-color="#233240" stop-opacity="1"></stop><stop offset="70%" stop-color="#253f58" stop-opacity="1"></stop></linearGradient></defs><defs><linearGradient id="grad2_6" x1="0%" y1="100%" x2="100%" y2="0%"><stop offset="30%" stop-color="#233240" stop-opacity="1"></stop><stop offset="70%" stop-color="#212529" stop-opacity="1"></stop></linearGradient></defs><g transform="translate(180, 960)"><path d="M-135 0C-129.7 -23.6 -124.3 -47.2 -110.9 -64C-97.4 -80.8 -75.8 -91 -56 -97C-36.2 -103 -18.1 -105 0 -107L0 0Z" fill="#222b34"></path><path d="M-115.7 0C-111.1 -20.2 -106.5 -40.4 -95 -54.9C-83.5 -69.3 -65 -78 -48 -83.1C-31 -88.3 -15.5 -90 0 -91.7L0 0Z" fill="#24384c"></path><path d="M-96.4 0C-92.6 -16.8 -88.8 -33.7 -79.2 -45.7C-69.6 -57.7 -54.2 -65 -40 -69.3C-25.8 -73.6 -12.9 -75 0 -76.4L0 0Z" fill="#254565"></path><path d="M-77.1 0C-74.1 -13.5 -71 -26.9 -63.3 -36.6C-55.7 -46.2 -43.3 -52 -32 -55.4C-20.7 -58.9 -10.3 -60 0 -61.1L0 0Z" fill="#26527e"></path><path d="M-57.9 0C-55.6 -10.1 -53.3 -20.2 -47.5 -27.4C-41.7 -34.6 -32.5 -39 -24 -41.6C-15.5 -44.2 -7.8 -45 0 -45.9L0 0Z" fill="#2a5f99"></path><path d="M-38.6 0C-37 -6.7 -35.5 -13.5 -31.7 -18.3C-27.8 -23.1 -21.7 -26 -16 -27.7C-10.3 -29.4 -5.2 -30 0 -30.6L0 0Z" fill="#326cb4"></path><path d="M-19.3 0C-18.5 -3.4 -17.8 -6.7 -15.8 -9.1C-13.9 -11.5 -10.8 -13 -8 -13.9C-5.2 -14.7 -2.6 -15 0 -15.3L0 0Z" fill="#3872c2"></path></g><g transform="translate(0, 0)"><path d="M135 0C125.3 22.2 115.6 44.5 101.3 58.5C87 72.5 68.2 78.4 50.5 87.5C32.8 96.5 16.4 108.8 0 121L0 0Z" fill="#222b34"></path><path d="M115.7 0C107.4 19.1 99.1 38.1 86.8 50.1C74.6 62.2 58.4 67.2 43.3 75C28.2 82.7 14.1 93.2 0 103.7L0 0Z" fill="#24384c"></path><path d="M96.4 0C89.5 15.9 82.6 31.8 72.4 41.8C62.2 51.8 48.7 56 36.1 62.5C23.5 68.9 11.7 77.7 0 86.4L0 0Z" fill="#254565"></path><path d="M77.1 0C71.6 12.7 66.1 25.4 57.9 33.4C49.7 41.5 38.9 44.8 28.9 50C18.8 55.2 9.4 62.1 0 69.1L0 0Z" fill="#26527e"></path><path d="M57.9 0C53.7 9.5 49.5 19.1 43.4 25.1C37.3 31.1 29.2 33.6 21.6 37.5C14.1 41.4 7 46.6 0 51.9L0 0Z" fill="#2a5f99"></path><path d="M38.6 0C35.8 6.4 33 12.7 28.9 16.7C24.9 20.7 19.5 22.4 14.4 25C9.4 27.6 4.7 31.1 0 34.6L0 0Z" fill="#326cb4"></path><path d="M19.3 0C17.9 3.2 16.5 6.4 14.5 8.4C12.4 10.4 9.7 11.2 7.2 12.5C4.7 13.8 2.3 15.5 0 17.3L0 0Z" fill="#3872c2"></path></g></svg>