<svg id="visual" viewBox="0 0 675 900" width="675" height="900" xmlns="http://www.w3.org/2000/svg" xmlns:xlink="http://www.w3.org/1999/xlink" version="1.1"><rect x="0" y="0" width="675" height="900" fill="#212529"></rect><defs><linearGradient id="grad1_0" x1="0%" y1="100%" x2="100%" y2="0%"><stop offset="30%" stop-color="#3872c2" stop-opacity="1"></stop><stop offset="70%" stop-color="#3872c2" stop-opacity="1"></stop></linearGradient></defs><defs><linearGradient id="grad1_1" x1="0%" y1="100%" x2="100%" y2="0%"><stop offset="30%" stop-color="#3872c2" stop-opacity="1"></stop><stop offset="70%" stop-color="#2d66a7" stop-opacity="1"></stop></linearGradient></defs><defs><linearGradient id="grad1_2" x1="0%" y1="100%" x2="100%" y2="0%"><stop offset="30%" stop-color="#27598c" stop-opacity="1"></stop><stop offset="70%" stop-color="#2d66a7" stop-opacity="1"></stop></linearGradient></defs><defs><linearGradient id="grad1_3" x1="0%" y1="100%" x2="100%" y2="0%"><stop offset="30%" stop-color="#27598c" stop-opacity="1"></stop><stop offset="70%" stop-color="#254c71" stop-opacity="1"></stop></linearGradient></defs><defs><linearGradient id="grad1_4" x1="0%" y1="100%" x2="100%" y2="0%"><stop offset="30%" stop-color="#253f58" stop-opacity="1"></stop><stop offset="70%" stop-color="#254c71" stop-opacity="1"></stop></linearGradient></defs><defs><linearGradient id="grad1_5" x1="0%" y1="100%" x2="100%" y2="0%"><stop offset="30%" stop-color="#253f58" stop-opacity="1"></stop><stop offset="70%" stop-color="#233240" stop-opacity="1"></stop></linearGradient></defs><defs><linearGradient id="grad1_6" x1="0%" y1="100%" x2="100%" y2="0%"><stop offset="30%" stop-color="#212529" stop-opacity="1"></stop><stop offset="70%" stop-color="#233240" stop-opacity="1"></stop></linearGradient></defs><defs><linearGradient id="grad2_0" x1="0%" y1="100%" x2="100%" y2="0%"><stop offset="30%" stop-color="#3872c2" stop-opacity="1"></stop><stop offset="70%" stop-color="#3872c2" stop-opacity="1"></stop></linearGradient></defs><defs><linearGradient id="grad2_1" x1="0%" y1="100%" x2="100%" y2="0%"><stop offset="30%" stop-color="#2d66a7" stop-opacity="1"></stop><stop offset="70%" stop-color="#3872c2" stop-opacity="1"></stop></linearGradient></defs><defs><linearGradient id="grad2_2" x1="0%" y1="100%" x2="100%" y2="0%"><stop offset="30%" stop-color="#2d66a7" stop-opacity="1"></stop><stop offset="70%" stop-color="#27598c" stop-opacity="1"></stop></linearGradient></defs><defs><linearGradient id="grad2_3" x1="0%" y1="100%" x2="100%" y2="0%"><stop offset="30%" stop-color="#254c71" stop-opacity="1"></stop><stop offset="70%" stop-color="#27598c" stop-opacity="1"></stop></linearGradient></defs><defs><linearGradient id="grad2_4" x1="0%" y1="100%" x2="100%" y2="0%"><stop offset="30%" stop-color="#254c71" stop-opacity="1"></stop><stop offset="70%" stop-color="#253f58" stop-opacity="1"></stop></linearGradient></defs><defs><linearGradient id="grad2_5" x1="0%" y1="100%" x2="100%" y2="0%"><stop offset="30%" stop-color="#233240" stop-opacity="1"></stop><stop offset="70%" stop-color="#253f58" stop-opacity="1"></stop></linearGradient></defs><defs><linearGradient id="grad2_6" x1="0%" y1="100%" x2="100%" y2="0%"><stop offset="30%" stop-color="#233240" stop-opacity="1"></stop><stop offset="70%" stop-color="#212529" stop-opacity="1"></stop></linearGradient></defs><g transform="translate(675, 900)"><path d="M-112.5 0C-104.6 -16.7 -96.7 -33.4 -88.3 -51C-79.9 -68.6 -71.1 -87 -56.3 -97.4C-41.4 -107.8 -20.7 -110.2 0 -112.5L0 0Z" fill="#222b34"></path><path d="M-96.4 0C-89.7 -14.3 -82.9 -28.6 -75.7 -43.7C-68.5 -58.8 -60.9 -74.6 -48.2 -83.5C-35.5 -92.4 -17.8 -94.4 0 -96.4L0 0Z" fill="#24384c"></path><path d="M-80.4 0C-74.7 -11.9 -69.1 -23.9 -63.1 -36.4C-57.1 -49 -50.8 -62.2 -40.2 -69.6C-29.6 -77 -14.8 -78.7 0 -80.4L0 0Z" fill="#254565"></path><path d="M-64.3 0C-59.8 -9.5 -55.3 -19.1 -50.5 -29.1C-45.7 -39.2 -40.6 -49.7 -32.1 -55.7C-23.7 -61.6 -11.8 -62.9 0 -64.3L0 0Z" fill="#26527e"></path><path d="M-48.2 0C-44.8 -7.2 -41.5 -14.3 -37.9 -21.9C-34.3 -29.4 -30.5 -37.3 -24.1 -41.8C-17.8 -46.2 -8.9 -47.2 0 -48.2L0 0Z" fill="#2a5f99"></path><path d="M-32.1 0C-29.9 -4.8 -27.6 -9.5 -25.2 -14.6C-22.8 -19.6 -20.3 -24.9 -16.1 -27.8C-11.8 -30.8 -5.9 -31.5 0 -32.1L0 0Z" fill="#326cb4"></path><path d="M-16.1 0C-14.9 -2.4 -13.8 -4.8 -12.6 -7.3C-11.4 -9.8 -10.2 -12.4 -8 -13.9C-5.9 -15.4 -3 -15.7 0 -16.1L0 0Z" fill="#3872c2"></path></g><g transform="translate(0, 0)"><path d="M112.5 0C108.3 18.8 104.1 37.7 95.3 55C86.4 72.3 72.9 88.1 56.3 97.4C39.6 106.8 19.8 109.6 0 112.5L0 0Z" fill="#222b34"></path><path d="M96.4 0C92.8 16.2 89.2 32.3 81.7 47.1C74.1 62 62.5 75.5 48.2 83.5C33.9 91.5 17 94 0 96.4L0 0Z" fill="#24384c"></path><path d="M80.4 0C77.4 13.5 74.4 26.9 68 39.3C61.7 51.7 52.1 62.9 40.2 69.6C28.3 76.3 14.1 78.3 0 80.4L0 0Z" fill="#254565"></path><path d="M64.3 0C61.9 10.8 59.5 21.5 54.4 31.4C49.4 41.3 41.7 50.3 32.1 55.7C22.6 61 11.3 62.6 0 64.3L0 0Z" fill="#26527e"></path><path d="M48.2 0C46.4 8.1 44.6 16.2 40.8 23.6C37 31 31.2 37.8 24.1 41.8C17 45.8 8.5 47 0 48.2L0 0Z" fill="#2a5f99"></path><path d="M32.1 0C30.9 5.4 29.7 10.8 27.2 15.7C24.7 20.7 20.8 25.2 16.1 27.8C11.3 30.5 5.7 31.3 0 32.1L0 0Z" fill="#326cb4"></path><path d="M16.1 0C15.5 2.7 14.9 5.4 13.6 7.9C12.3 10.3 10.4 12.6 8 13.9C5.7 15.3 2.8 15.7 0 16.1L0 0Z" fill="#3872c2"></path></g></svg>