<?xml version="1.0" encoding="UTF-8" standalone="no"?>
<!-- Created with Inkscape (http://www.inkscape.org/) -->

<svg
   version="1.1"
   id="svg2"
   width="3549.3333"
   height="2039.5601"
   viewBox="0 0 3549.3333 2039.5601"
   sodipodi:docname="gianlucaziegler1.eps"
   xmlns:inkscape="http://www.inkscape.org/namespaces/inkscape"
   xmlns:sodipodi="http://sodipodi.sourceforge.net/DTD/sodipodi-0.dtd"
   xmlns="http://www.w3.org/2000/svg"
   xmlns:svg="http://www.w3.org/2000/svg">
  <defs
     id="defs6" />
  <sodipodi:namedview
     id="namedview4"
     pagecolor="#ffffff"
     bordercolor="#000000"
     borderopacity="0.25"
     inkscape:showpageshadow="2"
     inkscape:pageopacity="0.0"
     inkscape:pagecheckerboard="0"
     inkscape:deskcolor="#d1d1d1" />
  <g
     id="g8"
     inkscape:groupmode="layer"
     inkscape:label="ink_ext_XXXXXX"
     transform="matrix(1.3333333,0,0,-1.3333333,0,2039.56)">
    <g
       id="g10"
       transform="scale(0.1)">
      <path
         d="m 18375.9,8001.62 h 5576.9 L 26620,10814.3 h -7743 c -2197.8,0 -4185.8,-702.2 -5567,-1893.34 -824.6,-711.39 -1433,-1597.1 -1740.4,-2611.83 -147.2,-485.65 -225.3,-1000.76 -225.3,-1540.53 0,-378.6 43.1,-743.9 126.6,-1092.2 C 11728.6,2598.8 12371,1683.2 13310,1035.6 14257.8,381.398 15507.8,0 16969.6,0 h 6639.1 l -2785.4,2780.4 h -3368.8 c -1023.5,0 -1833.3,329.9 -2305.4,895.8 -295.6,354.7 -458.8,801.9 -458.8,1318.8 0,478.62 129.9,922.48 360.1,1314.13 601.4,1024.35 1887.3,1692.49 3325.5,1692.49"
         style="fill:#3872c2;fill-opacity:1;fill-rule:nonzero;stroke:none"
         id="path12" />
      <path
         d="M 25585.4,6756.86 24418.1,162.398 21574.4,2860 21835.2,4348.4 H 16226 l 2441,2408.46 h 6918.4"
         style="fill:#495057;fill-opacity:1;fill-rule:nonzero;stroke:none"
         id="path14" />
      <path
         d="M 7742.96,10814.3 H 0 L 2667.17,8001.62 h 5576.89 c 1279.22,0 2438.14,-528.72 3101.94,-1366.47 87.1,246.82 192.3,488.18 315.1,723.56 342.5,656.06 813.6,1248.15 1403,1764.13 C 11697.9,10191 9813.55,10814.3 7742.96,10814.3"
         style="fill:#3872c2;fill-opacity:1;fill-rule:nonzero;stroke:none"
         id="path16" />
      <path
         d="m 15464.1,13238.7 c 0,-444.4 -140.9,-855.9 -380.4,-1192.2 -373,524.1 -985.4,865.9 -1677.6,865.9 -692.2,0 -1304.6,-341.8 -1677.7,-865.9 -239.4,336.3 -380.4,747.8 -380.4,1192.2 0,1136.5 921.5,2058 2058.1,2058 1136.5,0 2058,-921.5 2058,-2058"
         style="fill:#3872c2;fill-opacity:1;fill-rule:nonzero;stroke:none"
         id="path18" />
    </g>
  </g>
</svg>
