<svg height="332.485902" viewBox="0 0 278.63061 307.82285" width="300.764632" xmlns="http://www.w3.org/2000/svg" xmlns:xlink="http://www.w3.org/1999/xlink"><clipPath id="a"><path d="m.00091.00052h278.62973v307.82235h-278.62973z"/></clipPath><clipPath id="b"><path d="m220.08149 120.87068.00368.00461-.00185-.0009.83554 1.015.0037.00646q14.75967-2.1409 29.49172-4.40227-15.182 1.626-30.33279 3.37714"/></clipPath><clipPath id="c"><path d="m69.818 101.36508c.069-.035.78861-.40214 1.2616-.64511l.00645-.00276q-12.07084-4.90564-24.21436-9.722 11.44 5.22721 22.94631 10.36986m132.48783 3.77648c.41593.3184 1.29106 1.01872 1.29106 1.01872l.00736.0064q16.9461-7.49365 33.74768-15.17146-17.5962 6.98023-35.0461 14.14634m-112.45859-18.68655c.04416-.05707.49139-.635.74812-1.01316l.00645-.01011q-9.53106-8.05414-19.179-16.03832 9.15009 8.569 18.4244 17.06159m99.80112 2.34466c.21259.47392.61655 1.38953.61655 1.38953l.00736.01561q11.35581-10.34955 22.52945-20.81139-11.66226 9.64971-23.15336 19.40625"/></clipPath><clipPath id="d"><path d="m48.02379 119.64589.43159-.54935.00275-.0037q-7.31979-.81433-14.64878-1.5993 7.10446 1.09041 14.21444 2.15235"/></clipPath><clipPath id="e"><path d="m188.77233 52.61243q10.725.90416 21.33133 2.21588v-7.90826q-10.64079-1.29615-21.33133-2.18364z"/></clipPath><linearGradient id="f" gradientTransform="matrix(-.00003 23.54844 23.54844 .00003 -15081.94061 4043.05762)" gradientUnits="userSpaceOnUse" x1="-170.03794" x2="-169.11769" y1="648.93346" y2="648.93346"><stop offset="0" stop-color="#a38c37"/><stop offset=".01685" stop-color="#a68f35"/><stop offset=".19231" stop-color="#c6ac25"/><stop offset=".37451" stop-color="#dfc218"/><stop offset=".56409" stop-color="#f1d20f"/><stop offset=".76571" stop-color="#fcdb0a"/><stop offset="1" stop-color="#ffde08"/></linearGradient><g clip-path="url(#a)"><path d="m32.38947 185.71222a202.6383 202.6383 0 0 1 -13.57947-56.39673c-.60734-6.459-.91469-12.94733-.91469-19.28482a204.78658 204.78658 0 0 1 4.28817-41.62373l.49139-2.35944 2.352-.52728a530.8567 530.8567 0 0 1 226.6343-.99013l2.36859.508.50428 2.36859a205.00469 205.00469 0 0 1 4.48233 42.624 203.32538 203.32538 0 0 1 -14.51352 75.63187c-35.42339-1.59932-184.912-4.81912-212.11339.04968"/></g><path d="m220.08149 120.87068.00368.00461-.00185-.0009.83554 1.015.0037.00646q14.75967-2.1409 29.49172-4.40227-15.182 1.626-30.33279 3.37714" fill="#5c5c5c"/><g clip-path="url(#b)"><path d="m220.08147 117.49359h30.33279v4.40221h-30.33279z" fill="#5c5c5c"/></g><path d="m69.818 101.36508c.069-.035.78861-.40214 1.2616-.64511l.00645-.00276q-12.07084-4.90564-24.21436-9.722 11.44 5.22721 22.94631 10.36986m132.48783 3.77648c.41593.3184 1.29106 1.01872 1.29106 1.01872l.00736.0064q16.9461-7.49365 33.74768-15.17146-17.5962 6.98023-35.0461 14.14634m-112.45859-18.68655c.04416-.05707.49139-.635.74812-1.01316l.00645-.01011q-9.53106-8.05414-19.179-16.03832 9.15009 8.569 18.4244 17.06159m99.80112 2.34466c.21259.47392.61655 1.38953.61655 1.38953l.00736.01561q11.35581-10.34955 22.52945-20.81139-11.66226 9.64971-23.15336 19.40625" fill="#5c5c5c"/><g clip-path="url(#c)"><path d="m46.87168 69.39342h190.48022v36.77332h-190.48022z" fill="#5c5c5c"/></g><path d="m48.02379 119.64589.43159-.54935.00275-.0037q-7.31979-.81433-14.64878-1.5993 7.10446 1.09041 14.21444 2.15235" fill="#5c5c5c"/><g clip-path="url(#d)"><path d="m33.80934 117.49359h14.64878v2.15236h-14.64878z" fill="#5c5c5c"/></g><g clip-path="url(#a)"><path d="m140.91324 58.94442c2.39252 0 4.82831.01567 7.23925.046.67544.00831 1.35088.023 2.02632.03684.403.00916.807.01652 1.211.02483l1.17236.02022c.94135.01567 1.88273.03128 2.82412.05521 1.06651.02673 2.1321.06262 3.1977.09846l1.1015.03589q.5811.01936 1.16223.03589c.58616.01752 1.17326.035 1.75942.05706 1.55333.05892 3.14988.13345 4.694.20523l.4325.01932c.3138.01561.62849.02853.94228.04139.381.01657.761.03224 1.142.05156 1.89748.09475 3.83175.20978 5.651.3184.2503.01561.50152.02943.75275.04325.26684.01471.53371.02943.8015.046 2.23885.1408 4.44645.29907 6.11845.42236.18588.01286.37361.02578.56042.03774.17023.012.34139.023.51163.03589 1.96463.14816 4.094.322 6.50677.53093.12977.01106.25952.02213.38926.03224l.28619.02392c2.1956.19231 4.44.403 6.86384.64506l.2107.02022.09388.00921c2.31341.2319 4.6995.48678 7.0948.75733l.07545.00735c15.14754 1.71253 30.3779 4.05169 45.34141 6.96323.91375 5.69519 1.5984 11.47407 2.04286 17.24193.41408 5.38415.62388 10.8143.62388 16.14043a211.46911 211.46911 0 0 1 -1.86434 27.93934l-1.2294 9.192h8.81744q-.715 3.57639-1.43092 7.13532l-.1592.79136v.80794l.00185 32.19806c-3.65876-.19692-7.97453-.41779-12.847-.64506l-5.78626-.26962-2.13581 5.38412c-.04693.12149-.09753.24294-.14724.3635-.04325.10489-.08649.20981-.12881.31562-.98556 2.295-2.053 4.6544-3.17473 7.01659l-.05521.11227c-.05521.11042-.11042.22267-.16288.33311-.66438 1.38675-1.26436 2.61061-1.83488 3.7434-.11871.23556-.24112.46839-.36258.70212-.10121.19509-.20337.39015-.30365.58617-.47575.92664-.98188 1.91034-1.48706 2.85815-.16748.3129-.33772.623-.508.934l-.2954.54016c-.43711.80243-.94506 1.73368-1.45392 2.63546-.20337.36072-.41042.71962-.61748 1.07848l-.23373.4049c-.60366 1.0518-1.07019 1.84962-1.5073 2.58671-.25305.42514-.50978.84753-.76654 1.26989l-.09385.15552c-.57328.946-1.10055 1.80267-1.61219 2.618-.27608.43986-.55306.876-.83464 1.31682-.57052.89535-1.16222 1.80635-1.7576 2.70909-.2549.38465-.50888.76836-.76837 1.15486-.611.911-1.25424 1.85238-1.9674 2.87748l-.219.31472c-.14077.20337-.28158.40765-.42328.60917-.71226 1.0104-1.45945 2.04932-2.28028 3.16919l-.21994.30276c-.06442.08835-.12881.17667-.19416.265a203.561 203.561 0 0 1 -25.51184 28.47677l-.02946.0276-.03035.02761c-2.91154 2.74588-5.94271 5.44486-9.0162 8.026l-.04786.03957-.12331.10214c-.911.76379-1.85327 1.53861-2.79926 2.30422l-.30366.24384-.20337.16288c-.85489.68741-1.7079 1.36192-2.53425 2.00512-.21534.16749-.43157.335-.64323.49878-.80333.6202-1.638 1.25425-2.479 1.88459l-.23373.17574c-.14538.10952-.29169.21808-.43618.32575-.8199.60827-1.69135 1.245-2.59039 1.891l-.277.20062c-.09478.069-.19049.1371-.288.208-1.04441.74446-2.075 1.46773-3.04771 2.13581l-.14723.10306.02207-.01656c-2.14039 1.46958-4.35442 2.92718-6.57855 4.33327-.1362.08742-.27423.17206-.41133.25673l-.37361.2328c-.94688.59263-1.72907 1.07573-2.46525 1.522-.26134.1583-.52267.31472-.78493.47206l-.31194.18591q-1.09737.65562-2.20021 1.30025-.61425.35751-1.23125.7104-1.05731.606-2.12386 1.20087c-.427.23741-.853.47482-1.28182.70947q-1.07252.588-2.15328 1.16223l-.35429.18955q-.45137.24154-.90642.48218c-.784.41135-1.58644.82082-2.33548 1.20272l-.46839.23833c-.19324.10031-.38833.1997-.58249.29723a209.62329 209.62329 0 0 1 -31.05055-19.1532c-.76654-.57052-1.58369-1.18983-2.49929-1.89377q-.254-.196-.50613-.392l-.25948-.20154q-.87513-.67908-1.74564-1.36835-.41685-.32988-.83279-.66255-.88892-.71363-1.7714-1.43642l-.27053-.22087c-.13988-.1141-.27975-.22728-.41779-.3423-.88523-.73158-1.68212-1.39966-2.4367-2.041l-.034-.02943-.00736-.00646c-.72237-.61562-1.49073-1.28185-2.34837-2.03458-.138-.12053-.27514-.24294-.41225-.36439l-.22914-.20338q-.88753-.7854-1.765-1.57908-.34644-.3147-.68923-.62666-.922-.84336-1.83306-1.69593l-.23649-.21994-.26593-.24845c-.842-.79229-1.61222-1.52755-2.35482-2.249l-.02576-.02575-.0267-.02485c-2.06218-1.96741-4.11147-4.00659-6.09452-6.06509l-.10675-.11135-.13159-.13435c-.92849-.96806-1.85421-1.95269-2.75694-2.92993l-.2365-.25858-.17575-.19049c-1.01684-1.10886-1.89839-2.088-2.69438-2.99067a202.19819 202.19819 0 0 1 -30.711-46.43921c-.04878-.10214-.09846-.20337-.14815-.30458l-.08283-.17024c-.81806-1.72264-1.66374-3.58423-2.58578-5.69241-.28618-.681-.56592-1.36374-.84475-2.04839l-2.16525-5.31052-5.73014.2678c-3.829.17942-7.5595.36529-11.15936.55578l.00186-26.48358v-.34966l.00091-5.28383v-.80794l-.16011-.79136q-.715-3.55845-1.43185-7.13622h4.46025v-.0037h2.52413l-1.22665-9.18916c-.357-2.67413-.6653-5.38325-.91744-8.05643l-.0092-.08924c-.623-6.63933-.93861-13.297-.93861-19.79188 0-1.25147.01473-2.57562.04692-4.16851.00736-.38648.01841-.773.02854-1.15948l.00828-.28891c.02484-.88617.05612-1.80913.09385-2.74315l.01564-.4095c.0175-.42512.03405-.84933.0543-1.269.06442-1.32689.13435-2.54343.21165-3.71851l.00367-.06628.00184-.01381.01473-.21253v-.00832c.01565-.2328.03405-.46471.05153-.69661l.04141-.5521c.06534-.89628.1362-1.7815.20981-2.62993l.02117-.25493c.03773-.43708.07453-.87511.115-1.31219.1141-1.21288.24017-2.445.37452-3.66061q.058-.50935.1187-1.01591l.03681-.31565c.127-1.07663.26042-2.1459.39846-3.17838l.058-.44443c.02118-.16844.04234-.33682.06534-.50335.162-1.177.34416-2.4119.55673-3.76918 15.29108-3.11862 30.88492-5.63723 46.43184-7.497l.069-.00826c2.45052-.29262 4.89367-.56873 7.26688-.82175l.09662-.01011.2227-.02213c2.47536-.26313 4.76852-.49318 7.01381-.703l.2908-.02578c.12974-.011.25949-.02207.38925-.03493 2.479-.22915 4.66177-.41961 6.67242-.58249.16932-.01382.33956-.02578.50979-.03864.18772-.01382.37637-.02673.56317-.04145 2.53886-.20152 4.48049-.346 6.29513-.46932.26134-.01836.52267-.034.78311-.04875.2512-.01561.50242-.03038.75365-.04695 1.77414-.11592 3.83543-.24937 5.84422-.36069.39571-.02207.7914-.0405 1.188-.05892.32483-.01561.65058-.03033.97541-.04785l.46561-.023c1.568-.08189 3.18945-.16563 4.7667-.23191.60273-.02668 1.20547-.047 1.8082-.06717q.59492-.02073 1.188-.04235l1.13279-.04325c1.0932-.04139 2.18732-.08374 3.28144-.11592.98188-.02943 1.96373-.05061 2.94561-.07178l1.199-.02578q.62115-.01382 1.2386-.03033c.68095-.01657 1.36192-.035 2.04379-.04606 2.48-.04229 4.982-.069 7.439-.07913q.57836-.0027 1.15486-.00921h.03314c.41408-.00365.83093-.00826 1.24689-.00826m0-8.11534c-.45274 0-.90456.00461-1.35731.00831-.36993.00365-.74079.00736-1.11162.00921q-3.77239.01516-7.54293.08c-1.1098.01842-2.21863.05246-3.32747.07728-1.40149.03134-2.803.05707-4.20353.09941-1.49256.04415-2.98329.10492-4.47495.161-1.01223.03774-2.02632.06717-3.03853.11042-1.76956.07549-3.5373.16838-5.305.25948-.73155.03775-1.46313.06813-2.19378.10767-1.97658.10952-3.95227.23651-5.927.36625-.519.034-1.03894.06167-1.557.09666q-3.19542.218-6.38256.47572c-.36349.02853-.727.05246-1.09045.08189q-3.38451.2733-6.76444.5908c-.231.02117-.46011.03864-.69016.06071q-3.55983.334-7.11136.71223c-.1086.012-.21809.02213-.32669.03314q-3.68819.39343-7.36625.83371l-.058.00736q-26.00783 3.10983-51.54083 8.52849c-.33956.07178-.68.138-1.01867.21073-.26134 1.42727-.50336 2.85908-.73525 4.29275-.05705.35154-.1141.70212-.16931 1.05456q-.32437 2.0622-.61194 4.13267c-.04509.32666-.08558.65517-.12883.98278q-.21946 1.64947-.41409 3.30172c-.0543.461-.10951.9202-.16011 1.38121q-.2112 1.90071-.38926 3.80321c-.05061.543-.09661 1.08584-.14355 1.62969q-.11731 1.3638-.21625 2.72844c-.03864.52177-.081 1.04169-.115 1.56251l-.00091.0037-.00184.04325q-.127 1.92826-.21993 3.85843c-.0276.58248-.04878 1.16312-.07271 1.74561q-.058 1.4231-.09661 2.84807c-.01381.50239-.02945 1.00485-.03866 1.5073-.02944 1.44467-.04876 2.88941-.04876 4.33229 0 6.75249.32759 13.67247.97541 20.57032l.00829.07824q.39615 4.19612.95333 8.36286h-1.37041l.00093.00365h-6.24642l.06719.335 1.59011 7.9405q.86131 4.29966 1.71987 8.57449v5.63439l-.00185 35.06453c4.82925-.28344 11.46487-.64691 19.65473-1.0297.29813.72972.59629 1.45759.9018 2.18364.876 2.007 1.776 4.002 2.71461 5.97581.07822.16474.161.32854.23924.49417a210.36206 210.36206 0 0 0 31.9441 48.3017q1.38307 1.57218 2.802 3.11123c.14447.15735.288.31562.43343.47207q1.4162 1.53491 2.86276 3.04128c.08281.08649.16655.173.24938.25951q3.10155 3.2175 6.33654 6.30432 1.21192 1.17741 2.44315 2.33459c.17393.16288.34785.3239.52176.48678q.94691.88616 1.90391 1.76128.35751.32574.71592.65059.91241.8254 1.834 1.63979.33126.29541.66346.58895 1.22847 1.078 2.46984 2.13856l.01288.011q1.25745 1.07112 2.53241 2.122c.23741.196.47667.39018.71408.58434q.91653.75225 1.84042 1.49166.432.34508.86407.6883.90409.7164 1.81373 1.42174c.266.20519.53005.41225.796.61652q1.292.99243 2.5968 1.9674a217.6315 217.6315 0 0 0 35.89732 21.68377q1.80407-.86408 3.58973-1.76127c.381-.19141.75915-.38833 1.14012-.58157.81071-.41317 1.62143-.82728 2.42661-1.24964.438-.23005.87235-.46378 1.30946-.69661q1.12078-.59766 2.2361-1.2073.668-.36719 1.33246-.738 1.10562-.617 2.20481-1.246c.427-.2457.85486-.49046 1.28-.738q1.147-.66809 2.28488-1.35178c.38-.2273.76193-.45367 1.14015-.6828q1.28646-.78126 2.56-1.5809c.27147-.17027.54477-.33683.81532-.50889q3.46182-2.18778 6.83528-4.50165l.11228-.07914q1.60256-1.1001 3.18391-2.23059c.19509-.13985.38925-.28159.58434-.42144q1.35272-.97314 2.69252-1.9665c.23191-.17206.46289-.34691.69476-.51992q1.29477-.97032 2.5766-1.9582c.22267-.173.44629-.34507.66806-.51806q1.32508-1.0325 2.6327-2.08429c.17577-.13985.35154-.27973.52638-.42143q1.46587-1.18431 2.90969-2.3944l.184-.15367q4.79659-4.02774 9.3585-8.33065a211.35042 211.35042 0 0 0 26.53236-29.615c.14263-.19326.28343-.39017.42606-.58526q1.20227-1.63841 2.375-3.30079c.22452-.3193.44539-.64138.66991-.96253q1.03384-1.48659 2.04469-2.9916c.26872-.39937.53374-.80058.79875-1.20179q.92618-1.401 1.82938-2.81766.43618-.6819.86682-1.36835.84893-1.35411 1.67754-2.72291c.29908-.49321.59816-.98553.89353-1.48245.531-.8926 1.0518-1.79074 1.56987-2.6907.29632-.51438.59445-1.02787.88617-1.54409.51163-.90917 1.01223-1.8257 1.511-2.74222.27883-.51071.56131-1.01774.83464-1.53123.52635-.98646 1.038-1.9803 1.54869-2.975.22913-.44722.46654-.89168.69291-1.34167q.97314-1.93383 1.90669-3.89064c.07546-.15735.15549-.31194.23005-.47021q1.73643-3.651 3.33665-7.37823c.1086-.2687.22-.53557.32669-.80426 9.15422.427 16.38429.82911 21.34147 1.12633v-.67451l-.00185-40.11275q.85857-4.27346 1.719-8.57449l1.65821-8.27547h-9.44687a218.86275 218.86275 0 0 0 1.93522-29.01507q0-8.38676-.64783-16.76341a218.50064 218.50064 0 0 0 -3.09284-23.49473c-.322-.06532-.646-.12609-.969-.19231q-25.03058-5.07819-50.512-7.95982l-.07-.00735q-3.59294-.40583-7.19142-.76744c-.10307-.01017-.207-.01932-.311-.02949q-3.477-.34777-6.95676-.65516c-.22916-.01932-.45736-.03679-.68466-.05611q-3.29892-.28577-6.5988-.53834c-.36257-.02764-.72512-.04876-1.08769-.07549-2.06769-.15181-4.1354-.29812-6.20494-.42787-.52545-.03313-1.05088-.05891-1.57633-.0902-1.90944-.11407-3.81886-.2273-5.73012-.323-.704-.03494-1.40792-.06072-2.11282-.09385-1.73275-.08094-3.46457-.16288-5.19824-.2282-.98738-.03774-1.97569-.06167-2.96307-.09385-1.453-.047-2.906-.10031-4.35995-.1371-1.35085-.03409-2.70174-.05156-4.05259-.07734-1.09412-.01932-2.18824-.0469-3.28329-.06161q-3.67164-.04559-7.34142-.04606" fill="#fff"/><path d="m269.354 132.10369h-9.44592a218.723 218.723 0 0 0 1.937-29.01508q0-8.38818-.64966-16.7634a218.241 218.241 0 0 0 -3.09188-23.49479c-.323-.06622-.64691-.127-.969-.19231q-25.03335-5.07953-50.512-7.95982l-.07085-.00825q-3.593-.40583-7.1905-.76744c-.104-.01017-.208-.01932-.311-.02853q-3.477-.34787-6.95863-.65612c-.22727-.01932-.45549-.03589-.68277-.05611q-3.29757-.28576-6.59883-.53834c-.36254-.02668-.72511-.04875-1.08859-.07549-2.06678-.15181-4.1345-.29812-6.204-.42786-.52545-.03314-1.05088-.058-1.57633-.09021-1.90941-.11407-3.81978-.2273-5.73012-.323-.704-.03493-1.40885-.06071-2.11279-.09385-1.73278-.08-3.4646-.16288-5.19827-.2282-.98738-.03679-1.97569-.06167-2.96307-.09385-1.453-.047-2.90693-.09941-4.35995-.1371-1.35085-.03409-2.70171-.05156-4.05259-.07639-1.09412-.02027-2.18917-.04785-3.28329-.06166q-3.67164-.04693-7.34142-.047c-.45274 0-.90549.00461-1.35731.00831q-.55489.00691-1.11254.00921-3.77235.01651-7.54294.08c-1.10884.01842-2.2177.05246-3.32654.07728-1.40149.03224-2.80294.05707-4.2035.09942-1.49259.04414-2.98332.10491-4.47591.161-1.01223.03774-2.02536.06717-3.0376.11042-1.76956.07639-3.53727.16838-5.30591.25948-.73065.03775-1.46312.06813-2.19377.10863-1.97662.10856-3.95138.23645-5.92614.36529-.519.034-1.03892.06167-1.55791.09666q-3.194.218-6.38257.47572c-.36347.02853-.727.05246-1.08951.08189q-3.38454.2733-6.76446.5917c-.23.02117-.461.03864-.69107.05981q-3.55845.33405-7.11045.71319c-.10951.012-.21809.02117-.3276.03218q-3.68679.39479-7.36534.83461l-.058.00646q-26.0106 3.10983-51.54176 8.52849c-.33864.07178-.67912.13806-1.01775.21073-.26226 1.42817-.50335 2.86-.73524 4.29275q-.087.52731-.17025 1.05456-.323 2.06355-.61193 4.13267c-.04509.32762-.08466.65517-.12883.98278q-.21946 1.64949-.41318 3.30172c-.05428.461-.10951.92021-.161 1.38121q-.21117 1.90071-.38925 3.80417c-.05061.54289-.09571 1.08488-.14263 1.62873q-.11731 1.3638-.21716 2.72934c-.03772.52087-.08007 1.04079-.115 1.56161v.00371l-.00183.04414q-.127 1.92691-.21994 3.85843c-.0276.58158-.04968 1.16312-.0736 1.74471q-.05663 1.42444-.09663 2.84807c-.01289.50239-.02854 1.00485-.03775 1.5073-.03035 1.44468-.04968 2.88941-.04968 4.33324 0 6.75154.32851 13.67242.97542 20.57033l.00921.07818q.39475 4.1962.95334 8.362h-1.37031v.00461h-6.24637l.06807.334 1.58922 7.9405q.85992 4.301 1.71986 8.57539v5.63352l-.00183 35.06542c4.83017-.28433 11.46486-.6469 19.65563-1.03062.29722.72879.59537 1.45852.90181 2.18364.877 2.007 1.776 4.002 2.71461 5.97674.07821.16473.16011.32854.23925.49324a210.37279 210.37279 0 0 0 31.94317 48.30262q1.38445 1.5708 2.803 3.11124c.14447.15642.288.31469.4325.47114q1.4162 1.5349 2.86276 3.04128c.08374.08649.16748.173.25029.25951q3.10018 3.21888 6.33563 6.30433 1.21331 1.1774 2.44408 2.33548c.173.16288.34784.32393.52176.48588q.94689.88615 1.90391 1.76128.3575.32574.71592.65059.91238.82541 1.83306 1.64072c.22176.196.44169.39293.66439.589q1.22707 1.07664 2.46982 2.13764l.01289.011q1.25746 1.07251 2.53149 2.12293c.23833.196.47667.38925.71592.58431q.91517.7509 1.8395 1.49076.43065.34508.86407.68923.90274.715 1.81374 1.42171.39753.30783.79506.61655 1.292.991 2.59682 1.96647a217.55263 217.55263 0 0 0 35.89817 21.68387q1.80546-.86409 3.58973-1.76036c.381-.19141.75918-.38925 1.14015-.58248.81069-.41226 1.6214-.82726 2.42565-1.24965.438-.22912.87329-.46378 1.31039-.69658q1.12078-.5977 2.23517-1.20733c.44632-.24387.88893-.49046 1.33246-.738q1.107-.617 2.20574-1.24689.6405-.36715 1.2791-.73708 1.14843-.668 2.28578-1.35085c.38007-.22823.761-.45368 1.14015-.68465q1.28646-.77985 2.56-1.58c.27145-.17024.54474-.3368.81622-.508q3.459-2.18917 6.83346-4.50258l.11317-.07821q1.60116-1.1001 3.183-2.23059c.196-.14078.38925-.28251.58524-.42237q1.35272-.97314 2.69163-1.96557.34781-.25948.69566-.52085 1.29475-.969 2.57567-1.95819.33543-.2581.669-.519 1.32513-1.0297 2.63273-2.08243c.17574-.14078.35151-.28065.52543-.42236q1.4659-1.18431 2.91061-2.3944l.18313-.15367q4.79937-4.02774 9.36035-8.33064a211.33228 211.33228 0 0 0 26.5305-29.61411c.14356-.19416.28436-.3911.427-.58527q1.20227-1.63979 2.37413-3.30168c.22544-.31933.44721-.64141.66991-.96163q1.03522-1.488 2.04654-2.99161c.26779-.39936.53188-.80057.79782-1.20271q.92622-1.401 1.82938-2.81674.4362-.6819.86682-1.36927.84893-1.35273 1.67664-2.722c.29905-.49324.6-.98738.89443-1.48245q.79509-1.3389 1.569-2.69252c.2963-.51349.59445-1.026.88614-1.54319.51164-.90918 1.01316-1.82478 1.51191-2.74223.2779-.51071.56041-1.01774.83464-1.53216.52635-.9846 1.03706-1.97936 1.54777-2.97318.23005-.44906.46656-.8926.69293-1.34167q.97589-1.93382 1.90759-3.89156c.07546-.15735.15552-.31194.23005-.46929q1.73505-3.65229 3.33576-7.37915c.10856-.2687.22084-.53464.32758-.80333 9.15422.427 16.38522.82911 21.34055 1.12633v-.67451l-.00186-40.11278q.85857-4.27345 1.72082-8.57539l1.65543-8.27451m-233.23215-.00185-11.04894.00089-.14447-1.07752c-.35613-2.66767-.66532-5.37679-.91837-8.05643l-.01012-.0948c-.62206-6.63377-.93769-13.2896-.93769-19.78537 0-1.24782.01564-2.572.04785-4.16486q.011-.57423.02852-1.14751l.00828-.30368c.02486-.9156.05705-1.8312.09294-2.7413l.01841-.45179c.01564-.41226.03312-.82546.05246-1.23125.0598-1.23951.12974-2.48.21071-3.70386l.11412-1.56251q.09524-1.314.208-2.63083l.02209-.24943c.03773-.438.07453-.876.11687-1.31954.11318-1.22114.23833-2.44222.37268-3.655q.05936-.52452.12238-1.04905l.034-.288q.18773-1.58874.39845-3.17748l.12331-.94509c.162-1.17784.34508-2.41459.55672-3.771 15.29754-3.11952 30.896-5.63908 46.3978-7.49326l.13067-.01471c2.43671-.29082 4.87159-.566 7.23651-.819l.32208-.03224c2.47536-.26313 4.76851-.49228 7.01107-.703l.68278-.05981c2.46156-.2282 4.64337-.41871 6.67427-.58339l1.072-.08009c.86684-.069 1.661-.13064 2.40911-.1877.01011.29812.02116.59535.02761.91189l.00091.07274q.00552.312.00736.63494v.02853q.00414.69564-.012 1.44013l-.00092.04415a37.88766 37.88766 0 0 1 -6.954 21.58624c-.27054.39658-.75181 1.01776-.75181 1.01776l-.00092.0009q-.30366.39891-.62575.79412l-.13158.15923c-.16748.20517-.33772.4104-.51347.61562l-.21441.24842c-.15184.17484-.3046.34968-.461.52363-.08373.093-.16931.1868-.25489.27975-.15.16378-.30183.32851-.45735.49319-.09018.0957-.1822.19236-.27514.28807-.1546.16192-.31287.32295-.473.48308-.09479.0957-.19049.1923-.288.288q-.24847.24574-.50428.48959c-.09478.0911-.18956.18124-.28526.27234q-.28434.26505-.57606.52824c-.08281.07453-.16286.15-.24753.22544q-.4058.363-.83.72419l-.02669.023q-.44033.37405-.899.74441c-.08742.07-.17852.13991-.26687.21073-.21808.174-.43709.34694-.66162.51992-.11779.09021-.23834.18035-.358.27055-.2006.15182-.403.30369-.61009.4546-.13159.0966-.26594.19231-.39938.288-.20244.14445-.4058.289-.61193.43247-.13895.09666-.27974.19326-.42053.28986q-.31333.214-.63311.42517c-.14447.09571-.288.19141-.43525.28616-.22178.14356-.44723.28622-.6736.42882-.14263.08925-.28342.17945-.42789.2687-.25122.15462-.50887.30829-.76653.462-.12515.07549-.24755.15092-.37454.22545-.38739.2264-.77941.45185-1.1797.67454 0 0-.19324.09015-1.31773.634-.43343.19327-.86316.39108-1.29289.59266q-.6391.30084-1.26989.61557c-.49692.25583-1.26713.6469-1.26713.6469q-2.31617 1.21468-4.5219 2.60421l-.09294.05891q-.70672.44584-1.40148.90825l-.023.01657a66.71578 66.71578 0 0 0 -15.31778 14.14083l-.4325.55121a66.47269 66.47269 0 0 0 -5.8829 9.04192c-.04785.08835-.09662.17759-.14447.26774q-.3285.61567-.646 1.23956c-.06166.12143-.12424.24106-.185.36255q-.38373.76749-.75 1.54319h-4.29268m215.7427-1.07483-.14356 1.07572-25.67472-.00089c-.06717-.39294-.15459-.784-.254-1.17419l-.023-.093c-.09571-.36805-.208-.73526-.33129-1.10056l-.05336-.162c-.12056-.34783-.254-.69291-.39754-1.03888l-.09109-.219c-.14081-.3285-.29262-.65606-.45182-.98182-.04418-.0902-.08835-.1804-.13435-.26964-.15738-.31195-.32208-.62113-.49692-.92942-.05889-.10582-.11963-.21073-.18127-.31745q-.25676-.44036-.53189-.87881c-.07545-.11868-.15369-.23831-.231-.357-.18037-.276-.36439-.55211-.5558-.82636-.093-.13339-.18956-.265-.28434-.39754q-.23189-.32292-.473-.6423-.21256-.2829-.43343-.56406c-.0681-.0865-.13435-.17395-.20337-.26044l-.83554-1.01591.00185.001-.14723-.16838c-.23652-.27611-.47575-.55121-.72055-.82546l-.15366-.16934a72.73432 72.73432 0 0 0 -5.87829-5.73652l-.10121-.0911q-.45966-.40312-.923-.80064l-.19784-.17113q-.43616-.37405-.876-.74166c-.08282-.07088-.16749-.14081-.2503-.21169q-.421-.35333-.8429-.69936c-.09478-.07914-.19048-.15732-.28619-.23556-.27147-.22359-.54384-.44539-.81439-.66533-.104-.08369-.207-.16743-.31012-.25027q-.39891-.32157-.79321-.6386c-.104-.08284-.207-.16473-.31009-.24757q-.39478-.31467-.78494-.62388c-.09755-.07729-.19509-.15367-.29264-.23191-.96253-.761-1.90481-1.499-2.8057-2.20571 0 0-.87881-.704-1.29382-1.02148l-.05338-.04229q-.80748-.64044-1.55423-1.24411l-.06349-.05156c-.15185-.12328-.2963-.24291-.44354-.3644-.1371-.11317-.276-.22634-.4095-.33772-.13159-.10952-.25858-.21719-.38647-.3248-.14173-.11963-.28251-.23926-.41871-.35614-.11685-.09941-.22912-.19787-.3423-.29633-.14173-.12328-.27975-.24662-.415-.36715q-.14769-.13253-.29169-.26223c-.14541-.13345-.28437-.26415-.42146-.39479l-.2227-.21073c-.20337-.19691-.39661-.39018-.57513-.57788-.2779-.31194-.554-.6368-.82635-.97081-.07914-.09666-.15735-.19787-.23649-.29633-.19784-.24662-.39385-.49689-.58984-.75548-.081-.10766-.16288-.219-.24387-.32851-.19877-.26964-.39568-.54294-.59077-.8227-.06625-.09475-.1325-.18956-.19784-.28526q-.34647-.50516-.68373-1.03153l-.07913-.12148a46.91731 46.91731 0 0 1 -2.99158-5.50743s-.40582-.91931-.61838-1.39228q-.53973-1.26438-1.01959-2.58393l-.02117-.05981q-.45826-1.263-.85579-2.56742l-.05981-.19877q-.12423-.41264-.242-.82815l-.05338-.19231q-.20153-.72882-.3828-1.46686c-.03038-.12238-.06167-.24567-.09017-.369-.05892-.24752-.11688-.4969-.17209-.74717-.034-.15091-.06535-.30278-.09753-.4546q-.12288-.57836-.23191-1.16132c-.035-.18585-.06992-.3708-.10306-.55761-.03774-.21809-.07453-.43713-.10949-.65522q-.05661-.35334-.10674-.70762-.06213-.42511-.11688-.85118c-.03036-.24938-.06164-.49875-.09018-.74908q-.03036-.2802-.058-.56131c-.02943-.31009-.057-.62023-.081-.93127-.01381-.1886-.0267-.37816-.03867-.56592-.01932-.30644-.03679-.61287-.04968-.91925-.00643-.16013-.01289-.32026-.01749-.48038-.011-.3653-.01932-.73155-.02022-1.096-.00093-.11413 0-.22915 0-.34328q.00275-.52722.01932-1.05456c.00368-.1371.00828-.27509.01286-.41315.0175-.403.03775-.80518.06628-1.20636l.01471-.17765c.02853-.38552.06535-.7693.10674-1.153.01289-.12143.02668-.24291.04143-.36344.04967-.42242.104-.84382.16931-1.26439l.011-.06992q.09525-.60735.21348-1.21008c.02118-.11137.04325-.22269.06535-.33407.0865-.42236.17667-.84382.27883-1.26248l.00551-.023c.02578-.10217.05521-.20242.08191-.30369 1.2478.10031 2.56276.20984 3.98817.33312l.67727.05616c2.1947.19231 4.43908.40394 6.874.64691l.29447.02758c2.318.2328 4.70318.48774 7.09019.75733l.09388.00921c15.14293 1.71253 30.37054 4.05073 45.32852 6.96227.91282 5.697 1.59747 11.475 2.041 17.24193.415 5.38511.6248 10.81615.6248 16.14048a211.49192 211.49192 0 0 1 -1.86431 27.9384" fill="#fff"/><path d="m269.34754 124.35645h-.33586q.99655-10.57046 1.0067-21.40769a226.09648 226.09648 0 0 0 -4.95716-47.14132 591.09755 591.09755 0 0 0 -68.17543-10.49405q-27.63522-2.61714-55.97255-2.6438c-.83554 0-1.66832.01382-2.50389.01753q-19.99518.08282-39.66186 1.48242-5.66065.40034-11.28727.912a587.91562 587.91562 0 0 0 -75.91622 11.83381 225.72575 225.72575 0 0 0 -4.74367 46.03341c0 7.196.35336 14.31012 1.01223 21.33316l.00736.07453h-7.81992l.91192 4.55044.911 4.55133 1.65729 8.27361q.78678 3.92973 1.57172 7.83834l-.00093 20.58041-.00089 17.38088v3.19866l-.00093 2.33362v5.88658l2.3723-.18313 5.824-.45089.38282-.03036c3.7204-.21534 8.40886-.47207 13.96139-.74629a226.008 226.008 0 0 0 110.81966 110.28044l.00646.00276a226.09642 226.09642 0 0 0 88.19453-71.94277 225.079 225.079 0 0 0 22.12548-37.25184c.07178-.1546.14631-.31009.219-.46561.09845-.21348.19876-.42514.29812-.6377 9.53519.46836 16.5527.88707 20.56665 1.142l.00368-.00739.56041.04328c1.77232.1141 2.8499.18863 3.1968.21255v-10.84649l-.00182-38.49871q.78536-3.90765 1.57169-7.83834l1.65729-8.27361 1.82295-9.10177h-9.28307m-256.69742 27.95589v-.0009l.0009-3.4977zm255.06225-12.074q-.86135 4.29975-1.72081 8.57545l.00278 40.11185v.67541c-4.95625-.29722-12.18725-.69934-21.34147-1.12633-.10674.26869-.219.53463-.32666.80336q-1.597 3.72821-3.33668 7.37913c-.07453.15827-.15459.31286-.23005.46931q-.93586 1.95589-1.90666 3.89064c-.2273.45-.46381.89445-.69386 1.34259-.50979.99474-1.02142 1.98855-1.54687 2.97411-.2742.51346-.55671 1.02142-.83554 1.53123-.49782.91742-.99935 1.834-1.511 2.7422-.29262.51624-.58985 1.02973-.88617 1.54411-.51807.90089-1.03892 1.799-1.56987 2.6907-.29445.49689-.59445.98921-.8935 1.48245q-.82959 1.36927-1.67757 2.72288-.42924.68742-.86682 1.36927-.90272 1.4176-1.82938 2.81677c-.26409.40121-.53.80332-.79782 1.20271q-1.01038 1.50592-2.04562 2.9916c-.22362.32116-.44539.64231-.67083.96161q-1.1705 1.66329-2.37413 3.30171c-.14263.19417-.28343.39108-.42606.58524a211.28039 211.28039 0 0 1 -26.53144 29.61413q-4.56052 4.30105-9.35942 8.33155l-.184.15277q-1.44519 1.20917-2.90969 2.39437c-.17484.14263-.35061.28159-.52635.42239q-1.30852 1.05178-2.63273 2.08333-.334.26091-.66806.51809-1.28234.98832-2.5766 1.95913c-.23187.173-.46285.3469-.69566.51991q-1.33616.99245-2.69162 1.96463c-.19506.1408-.38922.28344-.58431.42239q-1.58184 1.12908-3.18394 2.23149l-.11225.07914q-3.37209 2.31344-6.83438 4.50165c-.27148.17116-.54478.33772-.81622.50889-.84936.531-1.70146 1.06008-2.56 1.57907-.37822.231-.76008.45643-1.14012.68463q-1.13878.6805-2.28488 1.35088c-.42514.24752-.85214.49231-1.28.738q-1.09733.62941-2.20574 1.246-.66391.37128-1.33153.738-1.11254.61147-2.2361 1.20822c-.43618.23191-.87143.46654-1.30946.69569-.80518.42329-1.615.83647-2.42658 1.24964-.38.19324-.75918.39016-1.14015.58249q-1.78609.89442-3.58973 1.76035a217.61622 217.61622 0 0 1 -35.89822-21.68377q-1.3044-.97314-2.5959-1.9665-.39891-.3078-.79506-.61745-.911-.70533-1.81465-1.42081c-.28894-.22912-.576-.45825-.86407-.6883q-.92343-.74125-1.8395-1.49166c-.23832-.19509-.47759-.38833-.715-.58524q-1.274-1.05183-2.53241-2.122l-.01289-.01014q-1.24367-1.06008-2.46983-2.13949c-.22176-.19506-.44262-.392-.66439-.588q-.92067-.81438-1.83213-1.64075-.36026-.32436-.71685-.65059-.95653-.87511-1.90391-1.76035c-.173-.16288-.34875-.3239-.52083-.48678q-1.23123-1.15945-2.445-2.33549-3.23408-3.085-6.33564-6.30435c-.08281-.08649-.16655-.17206-.24937-.25948q-1.44657-1.50592-2.86369-3.04131c-.14447-.15642-.288-.31377-.43249-.472q-1.41481-1.54182-2.803-3.11031a210.37344 210.37344 0 0 1 -31.94317-48.30262c-.07821-.16473-.161-.32854-.23925-.49417-.93769-1.97383-1.83766-3.96792-2.71461-5.97581q-.45826-1.08768-.90181-2.18367c-8.18985.38374-14.82546.74629-19.65473 1.03065l.00093-35.06452v-.34969l.00092-5.28473q-.85855-4.27481-1.71985-8.57545l-1.59015-7.94044-.06717-.334h6.24639l-.00092-.00461h1.37017q-.55624-4.16578-.95332-8.36286l-.00828-.07824c-.64784-6.89785-.97635-13.81693-.97635-20.56937 0-1.44383.02025-2.88857.04968-4.3333.01014-.5015.02485-1.00485.03774-1.5073q.04-1.42311.09753-2.848c.02393-.58159.04511-1.16313.07271-1.74472q.09386-1.931.21994-3.85842l.00275-.0442v-.00365c.034-.52088.07639-1.0408.1141-1.56161q.10077-1.36515.21717-2.72934c.047-.5429.093-1.08674.14263-1.62969q.17945-1.90206.39018-3.80231c.0506-.46191.10674-.92111.16012-1.38121q.19461-1.65361.41408-3.30262c.04325-.32761.08374-.65522.12884-.98278q.28434-2.07046.61192-4.13267.08286-.52731.16934-1.05456c.2328-1.43277.47389-2.86458.73523-4.29275.33864-.07273.67911-.139 1.01869-.21073q25.49021-5.41222 51.54083-8.52849l.058-.00646q3.67854-.44028 7.36627-.83371l.32667-.03314q3.55293-.37676 7.11138-.71313c.23005-.02117.4601-.03959.69015-.06071q3.379-.312 6.76536-.5908c.36256-.02943.726-.05246 1.0886-.08189q3.18991-.25257 6.38257-.47577c.519-.03494 1.03891-.06257 1.5579-.09571 1.97477-.12974 3.95046-.25673 5.92707-.36619.73062-.0405 1.4622-.07 2.19285-.10863 1.76864-.09014 3.53635-.1831 5.30591-.25858 1.01224-.04325 2.02537-.07268 3.03853-.11132 1.49166-.05521 2.98239-.11688 4.475-.161 1.40145-.04234 2.802-.06717 4.2035-.09845 1.10884-.02578 2.2177-.05892 3.32654-.07824q3.77239-.06488 7.54386-.08.55629-.00278 1.11255-.00831c.45182-.0046.90364-.00921 1.35638-.00921q3.67164 0 7.34142.047c1.095.01382 2.18917.0414 3.28329.06167 1.35088.02483 2.70174.04325 4.05259.07729 1.453.03678 2.907.08924 4.35995.1362.98831.03308 1.97569.057 2.96307.09385 1.73367.06532 3.46549.14816 5.19827.2291.70394.03223 1.40881.058 2.11371.093 1.91034.09666 3.81979.20888 5.7292.3239.52545.03129 1.05088.05617 1.57633.0893 2.06954.12975 4.13725.277 6.20494.42787.36257.02763.72515.04881 1.08769.07638q3.30171.24846 6.59883.53739c.2282.02028.45643.03685.6837.05707q3.48115.30506 6.95769.65426c.104.01107.208.01932.311.02943q3.59846.36168 7.19049.7675l.07178.00825q25.43914 2.87385 50.51112 7.95982c.323.06622.64691.126.969.19231a218.47592 218.47592 0 0 1 3.09281 23.49473q.64323 8.36611.64873 16.76346a218.87464 218.87464 0 0 1 -1.93612 29.01508h9.44687l-1.65729 8.27445" fill="#ffdd06"/><path d="m39.96646 187.95936c14.96073-1.5487 56.83109-3.12778 98.43646-3.21981 45.72973-.10028 85.63085 2.57292 96.793 3.21981-11.46856 25.41062-19.95655 39.03522-45.9782 65.28046-21.10771 21.22-46.12449 34.17468-51.66413 36.67489-6.18657-2.61249-32.13181-16.9401-53.42726-38.35057-21.9083-22.02427-38.30364-48.737-44.15984-63.60478"/></g><g clip-path="url(#e)"><path d="m194.02287 38.94712h10.83022v21.67053h-10.83022z" fill="url(#f)" transform="matrix(.03489828 -.99939087 .99939087 .03489828 142.72588 247.36157)"/></g><g clip-path="url(#a)"><path d="m85.329 199.65429v9.32539a4.73048 4.73048 0 0 1 -4.5541 4.55226h-6.93928v7.58988h-6.93929v-20.59975l-1.084-5.421h14.96258a4.73067 4.73067 0 0 1 4.5541 4.55319m-6.93928 1.51834a.66648.66648 0 0 0 -.65058-.65056h-3.90353v7.58896h3.90353a.66713.66713 0 0 0 .65058-.65059z" fill="#ffdd06"/><path d="m87.045 195.102h8.023v26.064h-6.939v-20.643z" fill="#ffdd06"/><path d="m98.21653 200.523-1.084-5.42094h7.58986l6.07155 12.79274s-.21719-2.42751-.21719-4.77035v-8.02245h6.50495v26.01979h-6.50495l-6.07152-12.79363s.21716 2.42933.21716 4.77128v8.02235h-6.50586z" fill="#ffdd06"/><path d="m128.05611 205.07615h9.97505v16.0466h-13.87767a4.73131 4.73131 0 0 1 -4.55409-4.55318v-16.91435a4.73067 4.73067 0 0 1 4.55409-4.55319h13.87767l-.86778 5.42094h-9.97412a.66651.66651 0 0 0 -.65059.65058v13.87768a.66652.66652 0 0 0 .65059.65059h3.9026v-5.2047h-1.95086z" fill="#ffdd06"/><path d="m159.61094 195.102v26.02072h-13.87767a4.73149 4.73149 0 0 1 -4.55411-4.55411v-16.04561l-1.08492-5.421h8.02329v19.9492a.66714.66714 0 0 0 .65151.64966h3.9026v-20.59886z" fill="#ffdd06"/><path d="m161.687 195.102h8.022v26.064h-6.938v-20.643z" fill="#ffdd06"/><path d="m172.85735 200.523-1.084-5.42094h7.58893l6.07248 12.79274s-.21809-2.42751-.21809-4.77035v-8.02245h6.50585v26.01979h-6.50585l-6.07155-12.79363s.21716 2.42933.21716 4.77128v8.02235h-6.50492z" fill="#ffdd06"/><path d="m201.775 200.523v4.553h8.239l-1.084 5.421h-7.155v5.205h9.324l-1.085 5.42h-15.178v-20.599l-1.04-5.421h17.303v5.421z" fill="#ffdd06"/><path d="m123.111 237.831v14.386h-3.836v-11.389h-1.199l-.6-2.997z" fill="#fff"/><path d="m135.219 249.70072a2.614 2.614 0 0 1 -2.51679 2.51676h-6.83438l-.59906-2.99711h5.75408a.36832.36832 0 0 0 .3598-.35982v-1.79807a1.43689 1.43689 0 0 1 -.95978.3598h-2.87657a2.61568 2.61568 0 0 1 -2.51768-2.51768v-4.556a2.615 2.615 0 0 1 2.51768-2.51768h5.15592a2.6142 2.6142 0 0 1 2.51679 2.51768zm-4.19615-8.87267h-1.79809a.369.369 0 0 0 -.3598.35982v2.87748a.3696.3696 0 0 0 .3598.35982h1.4392a.89747.89747 0 0 0 .71869-.35982v-2.87748a.36833.36833 0 0 0 -.3598-.35982" fill="#fff"/><path d="m147.32709 243.6577-1.19811 1.19812 1.19811 1.2v3.64494a2.615 2.615 0 0 1 -2.51771 2.51768h-5.155a2.615 2.615 0 0 1 -2.51768-2.51768v-2.398h3.8363v1.55884a.36961.36961 0 0 0 .35982.35979h1.79807a.36961.36961 0 0 0 .35982-.35979v-2.15882a.36879.36879 0 0 0 -.35982-.35889h-2.75689l-.6-2.99711h3.3569a.36961.36961 0 0 0 .35982-.35979v-1.799a.36959.36959 0 0 0 -.35982-.35979h-1.79807a.36959.36959 0 0 0 -.35982.35979v1.199h-3.83632v-2.03733a2.61517 2.61517 0 0 1 2.51768-2.5186h5.155a2.61517 2.61517 0 0 1 2.51771 2.5186z" fill="#fff"/><path d="m149.24572 240.34863a2.615 2.615 0 0 1 2.51771-2.51768h7.67267l-.59905 2.9971h-5.39516a.36833.36833 0 0 0 -.35982.35982v1.79807a1.436 1.436 0 0 1 .95885-.35979h2.8775a2.61584 2.61584 0 0 1 2.51768 2.51861v4.555a2.615 2.615 0 0 1 -2.51768 2.51768h-5.155a2.615 2.615 0 0 1 -2.51771-2.51768zm4.19617 8.87171h1.79811a.36891.36891 0 0 0 .35979-.35979v-2.87747a.369.369 0 0 0 -.35979-.35983h-1.4392a.89953.89953 0 0 0 -.71869.35983v2.87747a.36829.36829 0 0 0 .35982.35979" fill="#fff"/><path d="m118.0479 258.46659a2.36823 2.36823 0 0 0 .76193 1.65915 10.04235 10.04235 0 0 0 2.23335 1.0058l.97359 3.06335h-2.31526c-1.29011.83-.2282 3.67165-.2282 3.67165l1.21836.70212h34.77649c3.82714 0 3.38453-4.12529 3.38453-4.12529l-2.31434-4.79337-.1371-2.42658s-17.24286-.01471-18.86426-.01471a2.30273 2.30273 0 0 0 -.03774 3.60444l1.56529.50335 1.73275 2.78638h-14.50524l-1.0334-3.06611h2.35483l-1.96558-3.84281h-7.28345s-.3653.27515-.31655 1.27264m26.0161 1.5073h-1.94163a.214.214 0 0 1 -.21441-.21439v-.74907a.214.214 0 0 1 .21441-.21441h1.65912a.21543.21543 0 0 1 .20062.13805l.28251.75a.21448.21448 0 0 1 -.20062.28984m10.30726 4.23849h-9.3392c-1.0021 0-1.84135-1.74471-1.53766-2.756a.2051.2051 0 0 1 .196-.14631h9.55544l1.23678 2.73024a.12179.12179 0 0 1 -.11135.17209m-32.34254 2.00144a.2005.2005 0 0 1 .20244-.20152l32.91214.12424a.20224.20224 0 0 1 .2006.18587l.03131.38558a.20219.20219 0 0 1 -.20155.21809h-32.94341a.20147.20147 0 0 1 -.20152-.20152zm-.392-7.46565h1.80543a.258.258 0 0 1 .25675.22822l.06072.51071a.25775.25775 0 0 1 -.26316.28894l-1.80731-.04232a.25974.25974 0 0 1 -.2512-.22637l-.058-.46839a.25869.25869 0 0 1 .25676-.29079" fill="#fff"/><path d="m41.725 139.02086q-3.7158 8.04177-7.42792 16.26562-.92757.02481-1.85422.04875.00276-8.15761.00645-16.31437h-13.72861q.929 4.63791 1.85515 9.24538-.00139 17.56578-.00184 35.13164 5.927-.45825 11.85778-.87235.00415-9.06448.00645-18.12718c.6193-.02482 1.23584-.04968 1.85421-.07453q3.70477 8.88783 7.40584 17.58333 6.67382-.42512 13.34946-.79136-5.33215-10.68638-10.66522-21.66079 5.3487-10.3758 10.69834-20.43416z"/><path d="m110.18474 162.71992q6.123-.069 12.248-.1095.92892-4.15887 1.85881-8.31315-7.052.02625-14.10219.07821.00138-3.506.00368-7.00923 7.96442-.03311 15.92972-.04689-.871-4.14784-1.74379-8.29844h-27.83448q.88617 4.20581 1.77417 8.4015-.011 15.96326-.02118 31.92473 12.9915-.34643 25.98667-.47664.93031-4.58125 1.85881-9.15791-7.98233.05245-15.96283.17114.00274-3.58191.00461-7.16382"/><path d="m158.13493 139.02086h-27.94028q.92757 4.14514 1.85328 8.29018-.00135 15.75072-.00368 31.50237 5.94089-.029 11.88174-.012 0-8.12175-.00275-16.24441 6.12581.011 12.25071.04968.92618-4.14646 1.85238-8.29659-7.05063-.03175-14.10309-.04049 0-3.47976-.00093-6.96045 7.9782.00412 15.95455.02668z"/><path d="m177.105 162.83124q6.12441.08971 12.247.208.9248-4.21132 1.8487-8.43372-7.04924-.09107-14.10034-.15827-.00278-3.52116-.00553-7.04234 7.9782.04146 15.95547.09846v-.03314l-1.7704-8.45023h-27.84274q.89172 4.16445 1.7843 8.33248.00687 15.83357.01472 31.66435 12.99564.22085 25.98483.6607.92479-4.63371 1.84777-9.28122-7.97818-.21534-15.95825-.36715-.00273-3.59985-.0055-7.19788"/><path d="m210.81592 139.02086h-13.72769q.93036 4.25829 1.86252 8.52849.01381 16.20624.02761 32.41157 11.68293.4541 23.35948 1.08584 1.02141-4.79381 2.04654-9.6134-6.77043-.26088-13.54085-.47667-.01381-15.96744-.02761-31.93583"/><path d="m252.9835 139.07978a6.94188 6.94188 0 0 0 -.86407-.05982h-25.59926q.92895 4.40321 1.86066 8.82667.011 16.77074.02393 33.54063 11.86791.68877 23.7257 1.56251c.21259.01564.42514.01564.63588.011q3.4701-2.76476 6.94112-5.58842a6.83485 6.83485 0 0 0 .20338-1.6214v-28.80335q-3.46321-3.98221-6.92734-7.86782m-6.54174 33.456q-3.08779-.167-6.17737-.323-.0069-12.10671-.01289-24.21249 3.23546.04414 6.47367.092 1.01176 1.13742 2.02261 2.284.00414 10.14256.00736 20.28506-1.15668.94-2.31338 1.87446"/><path d="m92.43487 162.64261.011-15.20368v-.045l-7.79136-8.37393-.00368-.00365h-1.45025v.00365h-24.88241q.92479 4.36731 1.8487 8.71344-.01383 16.55549-.02761 33.11 5.93532-.30645 11.87159-.56685.0069-6.01678.01012-12.03358 1.59565-.04966 3.19128-.0966 3.22305 5.90082 6.447 11.73632 6.30665-.23741 12.61789-.42239-3.55845-5.9284-7.116-11.90656 2.6364-2.468 5.27372-4.91115m-11.87068-4.69675q-.94552.77988-1.89011 1.56344-3.32243.06626-6.64574.13895.00688-6.01674.01011-12.03262 3.45907-.03177 6.91813-.05982.8075.83784 1.615 1.67293-.00276 4.35906-.00736 8.71712"/><path d="m107.53732 51.46773c.00918-.24016.02114-.48032.03311-.72048-.012.24016-.02393.48032-.03311.72048" fill="#fff"/><path d="m159.069 94.64-.013-.013h-.001z" fill="#fff"/><path d="m107.61 50.06715c.01564-.23921.034-.47662.05336-.715-.01932.23836-.03682.47577-.05336.715" fill="#fff"/><path d="m107.82626 58.56345q-.04559-.36572-.08374-.73244.03863.36714.08374.73244" fill="#fff"/><path d="m108.27072 44.60482c.04047-.23006.08371-.45825.127-.68735-.04325.2291-.08649.45729-.127.68735" fill="#fff"/><path d="m107.87043 47.30377c.02851-.2346.06072-.46836.092-.70116-.03128.2328-.06349.46656-.092.70116" fill="#fff"/><path d="m107.72134 48.67858q.0345-.35611.07361-.71038-.03867.35476-.07361.71038" fill="#fff"/><path d="m163.422 98.447.001.001-.004-.005z" fill="#fff"/><path d="m107.57321 55.71628c-.01289-.24381-.02486-.48768-.03314-.73155.00828.24387.02025.48774.03314.73155" fill="#fff"/><path d="m107.67627 57.13989c-.0221-.24381-.04142-.48857-.05892-.73244.0175.24387.03682.48863.05892.73244" fill="#fff"/><path d="m179.9825 132.10374a67.92143 67.92143 0 0 0 -13.46722-14.85491 34.60109 34.60109 0 0 0 -4.694 9.80113 40.82851 40.82851 0 0 0 -34.08543-23.72113c4.42437.62574 15.799 7.18407 18.20817 19.55071-12.47066-16.16064-37.342-20.37336-55.80692-7.81806.10583-.23556.21441-.46746.32392-.69847a43.8155 43.8155 0 0 0 -5.70437 17.74073zm-75.2205-12.60506-.00553.00742-.03314.01836z" fill="#fff"/><path d="m107.51707 54.29368c-.00646-.242-.00921-.484-.01106-.726.00185.242.0046.484.01106.726" fill="#fff"/><path d="m107.506 52.87652c.00183-.24106.00643-.48218.01194-.72324-.00551.24106-.01011.48218-.01194.72324" fill="#fff"/><path d="m108.05356 45.94463c.034-.23185.07175-.46285.10949-.6938-.03774.231-.07546.462-.10949.6938" fill="#fff"/><path d="m159.58609 95.13986c.07268.06627.15089.13715.23463.21444-.08282-.07639-.16195-.14817-.23463-.21444" fill="#fff"/><path d="m109.78723 38.26086c.06532-.21163.1325-.4196.19967-.62848-.06717.20888-.13435.41685-.19967.62848" fill="#fff"/><path d="m110.16359 37.07932c.06993-.20792.14078-.4113.21163-.61557-.07085.20427-.1417.40765-.21163.61557" fill="#fff"/><path d="m110.55928 35.93277c.0736-.207.15181-.40765.22727-.611-.07546.20331-.15367.40393-.22727.611" fill="#fff"/><path d="m159.9597 95.47758.138.12334z" fill="#fff"/><path d="m159.37721 94.9457.14906.138z" fill="#fff"/><path d="m109.10165 40.71786c.05611-.21989.115-.43618.17206-.65427-.057.21809-.11595.43438-.17206.65427" fill="#fff"/><path d="m109.432 39.47369c.06071-.21623.12328-.42876.18587-.6423-.06259.21354-.12516.42607-.18587.6423" fill="#fff"/><path d="m108.79614 41.98865c.05154-.22264.10489-.44354.15828-.66528-.05339.22174-.10674.44264-.15828.66528" fill="#fff"/><path d="m159.16558 94.74047-.09663-.10026z" fill="#fff"/><path d="m161.59216 96.90574.00183.00186z" fill="#fff"/><path d="m108.51917 43.28522c.046-.22635.09477-.45179.14263-.67634-.04786.22455-.09663.45-.14263.67634" fill="#fff"/><path d="m160.28 95.76284.10674.09481z" fill="#fff"/><path d="m108.95444 64.21534c-.0681-.24106-.13527-.48218-.19786-.72324.06259.242.12976.48218.19786.72324" fill="#fff"/><path d="m130.60415 86.604-.20244-.07728z" fill="#fff"/><path d="m117.19214 78.34421-.0046-.00365z" fill="#fff"/><path d="m127.113 85.139.028.012-.035-.015z" fill="#fff"/><path d="m118.21173 79.30121-.12331-.10947z" fill="#fff"/><path d="m108.02778 59.98516c-.03867-.24381-.07639-.48678-.11045-.7306.03406.24382.07178.48679.11045.7306" fill="#fff"/><path d="m131.98356 87.09265c-.17026-.058-.33864-.11683-.50705-.17574.16841.05891.33679.11777.50705.17574" fill="#fff"/><path d="m119.15955 80.12391-.12331-.10025z" fill="#fff"/><path d="m124.5768 83.836-.03589-.01932z" fill="#fff"/><path d="m122.256 82.42443-.07271-.04689z" fill="#fff"/><path d="m113.36039 73.76435-.01289-.01837z" fill="#fff"/><path d="m121.17663 81.68272-.093-.06532z" fill="#fff"/><path d="m120.14968 80.91893-.11595-.08739z" fill="#fff"/><path d="m125.82459 84.505-.02763-.01376z" fill="#fff"/><path d="m114.04227 74.7223-.0175-.02387z" fill="#fff"/><path d="m159.2079 94.78372.10582.10216z" fill="#fff"/><path d="m112.71809 72.78618-.00646-.01011z" fill="#fff"/><path d="m123.387 83.14031-.05063-.03033z" fill="#fff"/><path d="m108.59 62.81385c-.058-.242-.115-.48492-.16749-.72879.05246.24387.1095.48684.16749.72879" fill="#fff"/><path d="m137.087 88.54653c-.51256-.11957-1.015-.24656-1.51191-.37636q.744.196 1.51191.37636" fill="#fff"/><path d="m108.28176 61.40321q-.07317-.36437-.13806-.72969.06488.3658.13806.72969" fill="#fff"/><path d="m109.37681 65.60486c-.07732-.2392-.15553-.47757-.2273-.71773.07177.24016.15.47853.2273.71773" fill="#fff"/><path d="m111.69114 71.01108c-.12516-.231-.2503-.4619-.36993-.6947.11963.2328.24477.46375.36993.6947" fill="#fff"/><path d="m112.11811 71.79144q.28567.49419.59077.98c-.23744-.37816-.46288-.76188-.6819-1.14655l.09113.16653" fill="#fff"/><path d="m133.44116 87.561q-.34508-.10489-.6828-.21349c.22545.07274.45365.14356.6828.21349" fill="#fff"/><path d="m135.02024 88.01836c-.29908-.08189-.5963-.16378-.88892-.24938.29262.0856.58984.16749.88892.24938" fill="#fff"/><path d="m110.40561 68.34341c-.10031-.2346-.20062-.47021-.2954-.70667.09478.23646.19509.47112.2954.70667" fill="#fff"/><path d="m111.01477 69.68784c-.11227-.23371-.22454-.46651-.33036-.70117.10582.23466.21809.46746.33036.70117" fill="#fff"/><path d="m109.85991 66.98332c-.08927-.23741-.17762-.47482-.26136-.714.08374.23921.17209.47662.26136.714" fill="#fff"/><path d="m112.30584 31.73848q.23188-.48173.46746-.93953-.23605.45831-.46746.93953" fill="#fff"/><path d="m114.76463 75.65908-.01842-.02208-.16656-.21713c.30551.39012.61931.77569.94967 1.15486l-.01564-.01752q-.38514-.4444-.749-.89813" fill="#fff"/><path d="m115.75937 76.82866c.19046.21443.38094.42977.57881.6414l-.01106-.012c-.19417-.207-.381-.41871-.56775-.62944" fill="#fff"/><path d="m200.9614 42.45151a35.24891 35.24891 0 0 1 4.41056-2.38882 32.23559 32.23559 0 0 1 9.31617-2.63734c10.76459-1.61311 16.2978.55856 22.76133 2.75787.10952-1.32049.33679-3.10294-1.48059-8.523-4.1023-12.22954-15.7466-19.57834-31.07544-19.01978a50.8328 50.8328 0 0 1 -11.475-.60821 28.54147 28.54147 0 0 1 -2.55082-1.56622 55.714 55.714 0 0 0 -12.68136-6.51509l-.21258-.069c-9.30238-2.80842-17.38824-4.07006-24.72412-3.85933a55.12613 55.12613 0 0 0 -15.339 2.57657c-1.48155.34969-4.24677 1.25243-5.30961 1.62879-8.6067 2.96675-21.26046 11.418-28.63776 25.49066-.46289.88247-.90827 1.84042-1.33617 2.84987-.65887 1.55516-1.17326 3.27229-1.83212 4.97836a53.22946 53.22946 0 0 0 -3.4636 19.18356c.28158 6.24543 3.27869 27.85835-22.35737 42.14735 0 0-.19233.0902-1.31682.634a66.66662 66.66662 0 0 0 -33.22777 32.591h9.75051c2.70081-7.23463 11.65716-18.76851 24.81616-27.42955a73.80534 73.80534 0 0 1 14.797-7.55763c.60732-.27425 1.75115-1.0058 2.39253-1.26438a8.84294 8.84294 0 0 0 2.27568-1.75392c.50519-.50981.97542-1.04535 1.38583-1.53033a14.93865 14.93865 0 0 0 3.31545-7.04694 16.37512 16.37512 0 0 1 .00645 7.29078 29.13 29.13 0 0 1 11.68388-2.341 11.49842 11.49842 0 0 0 .87511-4.50713c0-.41871-.01289-.83652-.035-1.25517a25.63052 25.63052 0 0 1 2.69252 2.85537c1.257-4.74364-3.41028-8.55517-5.594-12.88381-.11225-.16473-.22545-.323-.33587-.49139-.80057-1.21743.32944 5.48076.32944 5.48076-2.72842-3.15081-11.65719-25.60569-.19417-47.47169 6.75433-12.88566 18.52379-20.47367 25.67012-22.93067 1.89377-.67083 4.53386-1.44838 4.93047-1.50819l-.00921.03864a49.47146 49.47146 0 0 1 14.22099-2.4395c6.816-.19691 14.47578 1.05091 23.02727 3.633 8.84043 3.07992 13.21052 7.83463 15.93157 8.27727a55.72585 55.72585 0 0 0 12.72461.70582c11.8762-.43067 21.427 3.95413 25.89926 15.60029a37.81348 37.81348 0 0 0 -16.95852-1.44384c-17.50142 2.1846-27.3679 15.92515-28.75649 18.29924-12.94363 22.15952-4.78231 38.946 4.09033 50.22771.40674.51717-12.22679-7.71595-15.11718-19.09431a38.95539 38.95539 0 0 1 -3.86486 2.07692c-.14081 7.03406 3.55384 12.26268 7.09112 16.66956a53.87091 53.87091 0 0 1 -9.54441-8.454 14.80982 14.80982 0 0 0 2.90236 6.586c21.635 11.613 38.14352 16.941 44.73771 33.66211h10.495c-2.28485-13.251-23.20118-25.35452-29.34173-31.79412-8.996-10.10847-15.88647-31.70117-6.84082-47.18643a38.57559 38.57559 0 0 1 11.083-10.67073" fill="#fff"/><path d="m110.97338 34.8239c.081-.20792.16285-.40944.24569-.61281-.08284.20337-.16473.40489-.24569.61281" fill="#fff"/><path d="m106.07141 94.25c.11778-.04415.23005-.08739.33955-.12974-.10767.04145-.22545.08649-.33955.12974" fill="#fff"/><path d="m154.89673 89.02691.00551.03039.16195.10491c-.10674-.08559-.16746-.1353-.16746-.1353" fill="#fff"/><path d="m111.84941 32.724c.10029-.22449.20242-.44072.30549-.65881-.10307.21809-.2052.43432-.30549.65881" fill="#fff"/><path d="m111.404 33.75373c.08739-.21067.17759-.414.26684-.61927-.08925.20523-.17945.4086-.26684.61927" fill="#fff"/><path d="m112.77327 30.799q-.236.45822-.46653.93953c-.05246.10581-.10217.21809-.15184.32575-.10307.21809-.2052.43523-.30644.65977-.05982.13435-.11778.2733-.17667.4095-.08927.20613-.18037.4095-.26779.61928-.06257.15-.12239.30554-.185.45825-.08189.20337-.16474.40489-.24477.61287-.0635.16288-.12424.33126-.18681.49695-.07638.20332-.15366.40484-.22822.611-.06164.17485-.12239.35429-.184.531-.07085.20427-.14263.40764-.21165.61652-.06075.1813-.11778.36721-.1776.55216-.06624.20888-.13435.41686-.19877.62849-.05706.18865-.11227.381-.16841.57142-.06256.21354-.12606.42607-.18588.64236-.05521.19506-.10674.39287-.1592.58984-.058.21714-.11592.43343-.17206.65331-.0506.20063-.09845.404-.14723.60642-.05339.2209-.10767.44174-.15828.66443-.046.20517-.09017.41315-.13434.62113-.04878.22449-.09756.449-.14263.67634-.04235.20888-.081.42056-.12149.63124-.04325.22915-.08649.45735-.127.6874-.03771.21444-.07268.43067-.10767.646-.03771.231-.07453.462-.10949.69476-.03221.21809-.06164.43708-.0911.657-.03221.23281-.06349.46656-.092.70122q-.04.33126-.07545.66528-.03864.35476-.07361.71043-.03038.33539-.058.67263c-.01839.23836-.03771.47667-.05336.715-.01471.22634-.0276.45364-.03864.68-.01289.24016-.02485.48033-.03406.72049-.00829.2282-.01379.45735-.01932.6865-.00553.24016-.01011.48123-.012.72324-.00183.22915-.00093.4601.00092.69016.00183.242.00461.484.01011.726.00553.231.01382.46106.0221.69111q.01379.36581.034.73251.01934.34507.04325.69015c.01842.24477.03774.48858.05981.7334.01932.23006.04232.46011.06625.69106.02485.24477.05431.48768.08374.7325q.04279.34509.0911.69016.05248.36571.11045.73155c.03679.22915.07453.4592.11592.6883q.06488.36436.13806.7288.06761.3423.14077.6828c.05246.24387.1095.48588.16749.72879.05428.22641.10857.45185.16748.6773.06257.242.12882.48313.19692.72329.06349.22449.127.449.19416.67263.0727.23927.15091.47853.2282.71779.0727.22084.14541.44264.22179.66348.08372.23926.173.47667.26134.71408.08189.21809.16378.43618.2503.65331.09385.23651.19506.47207.29537.70768.0911.21438.1822.42882.27791.64231.10674.23555.219.46836.33126.70116.10123.20983.20154.42056.30643.62854.11963.23371.24477.46471.36993.69476.11042.20613.21992.4113.33587.61378q.32714.57836.68187 1.1475l.00278.00455.00643.00921c.20338.323.41225.64326.62942.96071l.01289.01842q.32161.47069.66347.934l.01747.02393c.17484.23466.35614.46651.53834.69751l.16656.21624.01839.023q.36442.45274.749.89807l.01564.01657c.07546.0865.1546.17024.23.25494.18681.21073.37361.42146.56778.62938l.011.012c.27515.29262.55859.58345.84936.86961l.00368.0037q.43758.42925.89628.84843l.12423.10947c.26962.243.542.485.82451.72239l.12331.10031c.28619.23831.576.47572.87421.70763l.115.08745c.30641.23555.6156.46836.93492.69751l.09293.06622q.49281.352 1.00763.69476l.07178.046c.35336.23286.71225.46291 1.08126.6874l.04968.02943q.56454.34374 1.15393.67544l.03589.01932q.59908.33547 1.22022.65612l.0276.01292q.62942.32436 1.28183.63214l.03406.01477q1.55559.73152 3.2603 1.37475l.20337.07824c.28526.10671.57881.20978.87236.31284.16838.05892.33679.11783.507.1758.2549.08649.51438.17113.77482.254.22545.07358.45272.14446.68277.21439.22915.06992.45735.1399.69016.20708.29265.08554.58987.16838.88892.24937.185.0506.36718.10211.55488.15181.49692.1307.99935.25673 1.511.37636 0 0-5.7568-5.48535-4.87984-6.85831a41.35168 41.35168 0 0 0 18.07655 5.67492 40.69971 40.69971 0 0 0 20.09643-3.72313 39.1664 39.1664 0 0 0 3.86486-2.07692c2.89129 11.37836 15.523 19.61148 15.11718 19.09431-8.87264-11.28266-17.034-28.06909-4.09033-50.22771 1.38767-2.37415 11.256-16.1156 28.75649-18.29924a37.81878 37.81878 0 0 1 16.95945 1.44378c-4.47315-11.64615-14.024-16.03185-25.90019-15.60028a55.7059 55.7059 0 0 1 -12.72461-.70673c-2.722-.44168-7.09114-5.19639-15.93157-8.27631-8.55149-2.58213-16.21131-3.82989-23.02727-3.633a49.45928 49.45928 0 0 0 -14.22 2.43948 46.19873 46.19873 0 0 0 -26.41 23.00244m33.60508 1.85417a5.9706 5.9706 0 0 1 -5.95652-2.89586 4.45128 4.45128 0 0 1 -.36623-.92117 5.154 5.154 0 0 1 -.16656-1.00485 3.68784 3.68784 0 0 1 1.188-2.55539c.00921.14445.02025.28711.03867.42607a5.981 5.981 0 0 0 .63124 2.05389 4.36827 4.36827 0 0 1 2.32169-3.40663 4.22458 4.22458 0 0 1 2.6272 1.64165 1.374 1.374 0 0 1 -1.33338.94323 1.40111 1.40111 0 0 1 -1.35178-.95334 4.02729 4.02729 0 0 0 2.77073 4.09673 7.48267 7.48267 0 0 0 3.93942-.29262 5.98153 5.98153 0 0 1 -4.34246 2.86829m1.5027-3.886s3.02656-.92481 2.54714-2.19841l-.06628-.10306a13.904 13.904 0 0 0 1.27818.81439c-.18588 1.28556-2.57843 1.707-3.759 1.48708m-6.26847-6.64022a13.21189 13.21189 0 0 1 6.15712-.36075c.24016.00831-4.45748-2.18824-5.06482-2.45508a14.22189 14.22189 0 0 1 9.57936 3.26858c.16839.14355 2.39713 2.249 6.68808 1.62412.04047.24572-.635 2.1496-3.90631 1.76959-3.27226-.38007-5.33534-3.23915-13.45343-3.84646m39.86248 29.40245c-5.30316 4.19064-8.534 20.98353-7.81255 24.9367-1.86988 2.642-5.20838 4.09865-8.25059 4.821a16.86838 16.86838 0 0 1 -10.00358-.06072 25.48757 25.48757 0 0 0 13.94482-14.23193 12.01389 12.01389 0 0 1 .50706 3.24c4.34706-14.11505 12.06023-19.24157 11.61484-18.70508m41.74432-22.084h-.00093c-.76008-.15647-1.4843-.29722-2.19378-.43067-5.15867-.73891-13.28134.0902-20.309 2.83426-.0911.02392-.18035.04785-.27052.07082a1.41488 1.41488 0 0 1 -.34968.0902c-10.66981 2.76063-19.57652 5.0676-29.65277 9.675-6.39729 2.85447-7.115-3.98632 3.67254-8.32237l.01657-.00826s-4.51087 4.12987-4.34248 4.451c.15277-.56592 4.34248-4.40042 4.34248-4.40042l-.01657.00736a65.60805 65.60805 0 0 1 18.083-4.86052l-.03682-.047a99.27988 99.27988 0 0 1 12.77089-1.58167 37.45777 37.45777 0 0 1 11.0195.577 49.06623 49.06623 0 0 1 7.26505 1.94438l.00276.00095m-39.64715-6.14518c.33494.24572.00458-3.34215-1.39227-5.31416 2.0594-.83282 3.50967 1.972 8.42265 2.41279a116.90909 116.90909 0 0 0 13.5197-.14356c8.14014-.41225 17.70294 2.08423 21.33041 8.09411-17.5548-7.23007-40.872-.97081-50.9786 2.09164a10.19591 10.19591 0 0 0 6.26293-7.97172 4.32266 4.32266 0 0 1 2.83518.8309m-3.38085-10.30448.15735.11688a26.85929 26.85929 0 0 0 -12.92341 2.445s3.71029-3.90628 4.36181-3.95413c-13.46082-3.71852-23.79934-2.56461-32.28091-1.08213 15.90212-7.51718 38.00367-.87331 40.68516 2.47441m-58.97518 64.95648c-18.91765-18.29649-8.28005-42.29821-6.41939-45.21531l-.00092.0037a40.508 40.508 0 0 0 -2.09715 17.40757 41.14978 41.14978 0 0 0 10.06062 23.23986c-.6432-.392-3.09649-1.90023-4.20165-2.70542a18.63744 18.63744 0 0 0 2.65849 7.26961"/><path d="m179.98343 132.10273h20.62457c-2.21035-10.22254-20.61543-21.42886-23.18832-23.25821l-.02117-.01472a22.74575 22.74575 0 0 0 -10.88237 8.419 67.919 67.919 0 0 1 13.46725 14.854" fill="#d2d2d2"/><path d="m104.762 119.499-.039.025.033-.018z"/><path d="m159.047 94.619.008.008v-.001l-.007-.007z"/><path d="m158.97232 24.20377c-4.29185.62394-6.51969-1.48057-6.68808-1.62412a14.223 14.223 0 0 0 -9.57936-3.26858c.60734.26594 5.305 2.46339 5.06482 2.45508a13.19948 13.19948 0 0 0 -6.15712.36075c8.11807.60827 10.18117 3.46735 13.45343 3.84646 3.27044.38007 3.94678-1.52387 3.90631-1.76959" fill="#5b5b5b"/><path d="m171.78713 11.60337c-.65152.04785-4.36181 3.95419-4.36181 3.95419a26.87122 26.87122 0 0 1 12.92341-2.445l-.15828-.11688c-2.67966-3.34772-24.78118-9.99069-40.68515-2.47441 8.48249-1.48248 18.821-2.63549 32.28183 1.08213" fill="#5b5b5b"/><path d="m169.86114 70.23533a12.038 12.038 0 0 0 -.50795-3.24005 25.48714 25.48714 0 0 1 -13.94392 14.231 16.86987 16.86987 0 0 0 10.00265.06167c3.04313-.72239 6.38164-2.17909 8.25151-4.82188-.72236-3.95323 2.50847-20.74517 7.81163-24.93581.44539-.53739-7.26778 4.59-11.61392 18.705" fill="#5b5b5b"/><path d="m146.78142 30.07841a4.02694 4.02694 0 0 1 -2.77076-4.09674 1.40151 1.40151 0 0 0 1.35178.95239 1.37284 1.37284 0 0 0 1.33338-.94317 4.22908 4.22908 0 0 0 -2.6272-1.64075 4.36726 4.36726 0 0 0 -2.32166 3.40567 6.05872 6.05872 0 0 0 4.22007 3.06982 5.70964 5.70964 0 0 0 3.73236-.43983c.4095-.22365.623-.34323 1.02142-.6a7.49431 7.49431 0 0 1 -3.93939.29262" fill="#fff"/><path d="m150.42819 26.56967c.47942 1.2727-2.54714 2.19745-2.54714 2.19745 1.18154.2209 3.57409-.20056 3.76-1.48612a13.78236 13.78236 0 0 1 -1.2791-.8144l.06628.10307" fill="#ffdd06"/><path d="m174.47412 30.441c10.10574-3.06246 33.4238-9.32171 50.9786-2.09069-3.62747-6.00988-13.19027-8.50731-21.33041-8.09506a117.16154 117.16154 0 0 1 -13.52063.14445c-4.913-.44168-6.36322-3.2465-8.42172-2.41279 1.39685 1.97111 1.72629 5.559 1.39227 5.31422a4.3184 4.3184 0 0 0 -2.83608-.831 10.19269 10.19269 0 0 1 -6.262 7.97083m9.18554-11.01031c1.50912.19141 3.11581 1.63154 6.86934 1.89933a94.86171 94.86171 0 0 0 12.709-.10581c6.57122-.50336 15.684 1.22018 18.37565 4.95072-4.26885-2.64375-10.4278-4.59458-21.11417-3.736-4.6038.369-14.56966 1.16958-16.83979-3.0082" fill="#5b5b5b"/><path d="m200.49947 22.43884c10.68635-.85854 16.84533 1.09325 21.11415 3.737-2.6916-3.73054-11.80443-5.45408-18.37562-4.95162a94.7231 94.7231 0 0 1 -12.70807.10671c-3.75444-.26869-5.36205-1.70792-6.87027-1.90023 2.26923 4.17868 12.236 3.3781 16.83981 3.00814" fill="#d2d2d2"/><path d="m204.899 28.09808.04783.00281a2.09024 2.09024 0 0 1 -.19049.27145c-.09109.12424-3.22347 2.89957-3.332 2.97781q-.34234.247-.70858.49965c7.02762-2.745 15.14939-3.57407 20.309-2.83426-7.74355-1.4622-12.44673-1.6048-16.12571-.91746" fill="#5b5b5b"/><path d="m215.95159 27.50088a37.48725 37.48725 0 0 0 -11.01949-.57788 48.24214 48.24214 0 0 1 11.01949.57788" fill="#5a5b5d"/><path d="m200.44516 31.91972c-.11595.02949-.23283.06077-.34968.0902a1.36642 1.36642 0 0 0 .34968-.0902" fill="#5a5b5d"/><path d="m223.219 29.445-.002-.001z" fill="#a8aaab"/><path d="m223.21662 29.44436a49.05252 49.05252 0 0 0 -7.26413-1.94436 48.89713 48.89713 0 0 1 5.70252 1.60947c-.20152-.03589-.41685-.06442-.62941-.09481.70855.13435 1.43277.27426 2.19378.43067l-.00276-.00095" fill="#a8aaab"/><path d="m223.218 29.445h.001l-.003-.001z" fill="#a8aaab"/><path d="m223.219 29.445h-.001z" fill="#a8aaab"/><path d="m215.95159 27.50088a48.24214 48.24214 0 0 0 -11.01949-.57788 99.2482 99.2482 0 0 0 -12.76973 1.58183l.03589.04785c1.71249-.22084 3.45263-.38647 5.201-.48217.17759-.00921.35611-.01286.53463-.02118a61.6798 61.6798 0 0 1 6.965.04881c3.67991-.6874 8.38218-.5448 16.12664.91746.21166.02943.42789.05886.62944.09385a49.103 49.103 0 0 0 -5.70345-1.60857" fill="#d2d2d2"/><path d="m169.90714 37.81272c3.8078-1.21187 7.47484-2.767 11.32683-3.88049q6.24591-1.80408 12.56819-3.275l-1.6039-2.10456a65.61115 65.61115 0 0 0 -18.083 4.85963l.01654-.00641s-4.18968 3.8345-4.34245 4.39947l.1178.00735" fill="#ffdd06"/><path d="m204.75633 28.37234a1.96431 1.96431 0 0 0 .19046-.27145l-.04783-.00275a20.98667 20.98667 0 0 0 -3.16919.85674q1.51145-.294 3.02656-.58254" fill="#ffdd06"/><path d="m196.342 30.0683c1.25147-.28066 2.50386-.54014 3.759-.79227a3.85649 3.85649 0 0 0 -2.1671-1.22754c-.17852.00826-.35611.012-.53463.02207-1.74839.09571-3.48853.26134-5.201.48128l1.60393 2.10451c.84657-.19787 1.69132-.39754 2.53978-.588" fill="#ffdd06"/><path d="m201.72977 28.95483a20.88038 20.88038 0 0 1 3.16917-.85669 61.8877 61.8877 0 0 0 -6.965-.04971 3.85912 3.85912 0 0 1 2.168 1.2276q.813-.16293 1.62786-.3212" fill="#ffdd06"/><path d="m166.96064 41.98955c-2.17356-2.57932 1.09412-5.87368 7.15369-8.627-10.78669 4.33605-10.06893 11.1769-3.67255 8.32237-2.0263.5052-3.07259.79232-3.48114.30458" fill="#f9b117"/><path d="m200.31082 29.50693c-1.71528.72425-3.40386 1.62328-5.38508 2.62262l-1.09137-1.43q-6.33562 1.48385-12.59947 3.28239c-3.852 1.11347-7.51994 2.66857-11.32683 3.8805-.10306.03314-.1362.00831-.1187-.05706-.16842-.3202 4.34335-4.45013 4.34335-4.45013l-.01747.00736c-6.05956 2.75327-9.32724 6.04763-7.15371 8.627.40767.48774 1.45487.20157 3.48024-.30458 10.07718-4.60655 18.98389-6.91442 29.6537-9.67415.11778-.03033.23373-.06071.35058-.0911.15092-.0469.29172-.0911.26962-.06992.24569-.16749.48128-.335.70951-.49965a4.91592 4.91592 0 0 0 -1.11437-1.84322" fill="#f9b117"/><path d="m200.44516 31.91972c.09017-.023.17942-.0469.27052-.06992.02118-.02118-.1187.02212-.27052.06992" fill="#f9b117"/><path d="m200.31082 29.50693a4.91592 4.91592 0 0 1 1.11437 1.84322c.10856-.07824 3.24094-2.85268 3.33114-2.97781-1.05365.20062-2.10453.415-3.1554.62848-.43525.15738-.86407.32576-1.29011.50611" fill="#f9b117"/><path d="m196.342 30.118c-.83739.18776-1.672.38557-2.50757.58069l1.09044 1.43091c1.98212-.99934 3.6707-1.89837 5.386-2.62352l-.185-.20427q-1.8938.39614-3.78389.81619" fill="#f9b117"/><path d="m200.12676 29.30176.184.20522c.42607-.17944.85489-.34872 1.29014-.5061-.49139.10031-.98278.19781-1.47417.30088" fill="#f9b117"/><path d="m169.90714 37.86243c3.8078-1.21187 7.47484-2.767 11.32683-3.8805q6.26108-1.80955 12.6004-3.28329l-.03221-.04235q-6.32041 1.48107-12.56819 3.275c-3.852 1.11437-7.519 2.66952-11.32683 3.8805l-.1178-.00641c-.01747.06532.01564.08925.1178.057" fill="#f9b117"/><path d="m201.6 29.00082c1.05087-.21348 2.10265-.42786 3.1563-.62848q-1.51561.28989-3.02656.58249l-.12974.046" fill="#f9b117"/><path d="m200.12676 29.30176-.02485-.02483c-1.25518.25123-2.5085.51167-3.75907.79137-.84843.19051-1.69408.39018-2.53975.58894l.03221.04235c.83461-.196 1.67018-.39388 2.50754-.58159q1.88829-.42232 3.78392-.81624" fill="#f9b117"/><path d="m200.12676 29.30176c.49139-.10307.98278-.20057 1.47417-.30088l.12881-.0451q-.81438.15738-1.62783.32115z" fill="#f9b117"/><path d="m112.69877 50.14814a40.49486 40.49486 0 0 1 2.09715-17.40757l.00092-.00365c-1.86159 2.91794-12.49826 26.91883 6.41936 45.21532a18.62125 18.62125 0 0 1 -2.65849-7.26967c1.10426.80519 3.55845 2.31344 4.20075 2.70542a41.152 41.152 0 0 1 -10.05969-23.23985" fill="#5b5b5b"/><path d="m149.91748 30.61394c-5.68505 2.51035-8.407-.126-8.16963-2.85813a5.98983 5.98983 0 0 1 -.63216-2.053c-.0175-.139-.02946-.28155-.03867-.42606a3.69158 3.69158 0 0 0 -1.188 2.55545 5.18305 5.18305 0 0 0 .16749 1.00485 4.41636 4.41636 0 0 0 .36532.9211 6.03841 6.03841 0 0 0 .84565 1.11623 5.96669 5.96669 0 0 0 4.3121 1.83856 6.05545 6.05545 0 0 0 5.14121-2.92715c-.23466.22269-.49875.692-.80333.82815" fill="#5a5b5d"/><path d="m145.967 30.82563a6.05686 6.05686 0 0 1 -4.21918-3.06982c-.23741 2.7312 2.48458 5.36758 8.16963 2.85819.30458-.1362.56867-.60642.80333-.82816-.39754.25763-.612.37637-1.02142.6a5.70964 5.70964 0 0 1 -3.73236.43983" fill="#5b5b5b"/><path d="m155.22617 90.06029a4.0824 4.0824 0 0 1 -.21073-.51806 4.0824 4.0824 0 0 0 .21073.51806" fill="#ffdd06"/><path d="m156.40125 91.83354-.162-.21163z" fill="#ffdd06"/><path d="m155.53075 90.6161c-.06627-.10761-.11595-.20977-.17209-.31469.05614.10492.10582.20708.17209.31469" fill="#ffdd06"/><path d="m157.58926 93.1761-.21259-.231z" fill="#ffdd06"/><path d="m158.81865 94.3991.22913.22089z" fill="#ffdd06"/><path d="m156.958 92.49055-.185-.21713z" fill="#ffdd06"/><path d="m155.92368 91.2078-.15369-.231z" fill="#ffdd06"/><path d="m158.28862 93.88839-.20983-.21348z" fill="#ffdd06"/><path d="m159.048 94.619h-.001z" fill="#ffdd06"/><path d="m161.59492 96.90754-.00186-.0018c-.43893-.37636-.8475-.7316-1.20639-1.04815l-.10675-.09475-.18219-.162-.138-.12328-.138-.12334c-.08374-.07638-.162-.14816-.23465-.21438l-.06075-.05617-.14816-.138-.06439-.06078-.10492-.1012-.04325-.04325-.0957-.10031-.01472-.01286-.06717.00645c1.27818 1.20087 2.7873 2.48548 4.43541 3.81333l-.00461-.00371c-.62023-.5116-1.245-1.03888-1.82384-1.53583" fill="#d2d2d2"/><path d="m159.047 94.619-.069.006.01.009.067-.007z" fill="#d2d2d2"/><path d="m154.9133 89.27078a.76812.76812 0 0 1 -.058-.24381l.04693.02943-.00551-.02943s.06072.04965.16746.13435c5.48906 3.575 10.76369 6.596 15.765 9.28026a14.80626 14.80626 0 0 1 -2.90325-6.58681 53.84883 53.84883 0 0 0 9.5453 8.45485c-3.5382-4.40687-7.23282-9.6355-7.092-16.66955a40.57614 40.57614 0 0 1 -14.32761 3.72037c-1.14383.48223-1.419 1.14846-1.1383 1.91034" fill="#d2d2d2"/><path d="m120.57021 89.20911c5.051-3.21792-4.12071-3.28048-11.7796-14.53006 2.1846 4.32774 6.85188 8.14017 5.59488 12.88387a25.62584 25.62584 0 0 0 -2.69252-2.85543q.03311.62662.034 1.25517a11.515 11.515 0 0 1 -.87421 4.50719 17.9504 17.9504 0 0 1 4.78417.692c2.8048-1.22754 4.70871-1.81 4.93325-1.95269" fill="#d2d2d2"/><path d="m106.07141 94.25c.1141-.04325.23188-.08829.33955-.12974l.11317-.04325c.99934-.38647 1.94626-.72509 2.84068-1.02507a12.06512 12.06512 0 0 0 1.48891-2.58123 29.09084 29.09084 0 0 0 -11.68387 2.341 16.36894 16.36894 0 0 0 -.00737-7.29079 14.93446 14.93446 0 0 1 -3.31551 7.047c-.41041.484-.88063 1.02047-1.38583 1.53028a8.82365 8.82365 0 0 1 -2.27475 1.75392c-.6423.25768-1.7852.99013-2.39254 1.26438a73.803 73.803 0 0 0 -14.797 7.55673c-13.159 8.661-22.11534 20.19582-24.81615 27.42953h15.25894c3.93111-24.98549 32.26436-34.67435 40.63177-37.85276" fill="#5b5b5b"/><path d="m114.64683 91.60534c.34047-.15642.67173-.30459.99013-.44354a17.9561 17.9561 0 0 0 -4.78417-.692 12.10417 12.10417 0 0 1 -1.4889 2.58117 41.773 41.773 0 0 1 5.28294-1.44568" fill="#5a5b5d"/><path d="m109.37588 94.353c1.80635-1.06191 3.51242-1.93151 5.0234-2.63268a25.94643 25.94643 0 0 0 -4.763 2.3263 2.69957 2.69957 0 0 1 -.26041.30638"/><path d="m65.77368 132.10273h18.98388a43.81532 43.81532 0 0 1 5.70437-17.74067 45.111 45.111 0 0 1 15.2414-17.65323 20.54518 20.54518 0 0 0 3.66148-3.65786c-.89535.30093-1.84131.63955-2.83976 1.02512l-.115.04325c-.10949.04235-.22084.08559-.33862.1307-8.22666 3.13878-32.672 11.72984-40.29773 37.85269"/><path d="m109.63632 94.04571a26.09376 26.09376 0 0 1 4.763-2.32625l.24752-.11412a41.63071 41.63071 0 0 0 -5.282 1.44658 20.51776 20.51776 0 0 1 -3.66243 3.65691c1.25057-.87331 2.48364-1.65636 3.67347-2.35669.07638-.09289.28619-.30273.26044-.30643"/><path d="m106.07141 94.25c-8.36745 3.17843-36.70066 12.86729-40.63177 37.85275h.334c7.62579-26.12287 32.07111-34.71393 40.29777-37.85275"/><path d="m109.36484 93.05192c-.89538.3-1.84134.63866-2.84068 1.02513l-.1132.04324.1132-.04324c.99934-.38647 1.9453-.72419 2.84068-1.02513"/><path d="m114.64683 91.60534a41.773 41.773 0 0 0 -5.28294 1.44568 41.773 41.773 0 0 1 5.28294-1.44568"/><g fill="#ffdd06"><path d="m120.57021 89.20911a25.39064 25.39064 0 0 1 -4.6627 1.95269l.01567-.0009-.115.05246c.16285.05061.33033.09571.49046.15367-.33587.02482-.7279.07453-1.16775.14816h-.00093a60.0262 60.0262 0 0 0 -5.68227 2.883 46.77511 46.77511 0 0 0 -5.73013 3.8842 58.07832 58.07832 0 0 0 -13.25656 16.07972c-.10951.23185-.2181.46376-.32392.69841 18.46487-12.55439 43.33626-8.34168 55.80692 7.819-2.40819-12.3667-13.78472-18.92593-18.20817-19.55071a40.8274 40.8274 0 0 1 34.08546 23.72019 34.64648 34.64648 0 0 1 4.694-9.80024 52.04337 52.04337 0 0 0 -11.43081-7.17851c-.75087-.33132-.95885-1.15582-.42882-1.47512a.75813.75813 0 0 1 .22915-.184 39.89264 39.89264 0 0 1 16.03921-4.23293c-1.99776-1.45945-3.978-2.93822-5.83136-4.38481l-.01011-.00735c-.51624-.40394-1.08494-.86405-1.65914-1.33892l-.00185-.0009c-1.64716-1.32695-3.15631-2.61156-4.43356-3.81243l-.01011-.00921.069-.0055-.22913-.21994c-.17944-.17209-.35979-.34323-.53-.51071l-.20891-.21348c-.16656-.16749-.33494-.33587-.49046-.49875l-.21256-.231c-.14263-.15271-.28711-.30638-.41778-.45454l-.18495-.21809c-.127-.14726-.25676-.29633-.37179-.43988l-.16288-.21163c-.10764-.139-.219-.27881-.31469-.41315l-.15369-.231c-.08189-.12053-.16839-.24387-.24017-.36069-.06534-.10767-.115-.20983-.17116-.31475l-.13249-.24106a4.23788 4.23788 0 0 1 -.21166-.51812c-.02946-.09015-.069-.184-.10124-.27145-.28158-.76193-.0055-1.42816 1.1374-1.91034a40.64455 40.64455 0 0 1 -5.76879.00185 41.34889 41.34889 0 0 1 -18.07565-5.67491c-.877 1.37385 4.87987 6.85831 4.87987 6.85831-.51256-.11963-1.015-.24572-1.511-.37636-.18773-.04881-.36993-.10127-.55488-.15187-.29908-.08189-.59723-.16378-.88985-.24848-.23188-.06807-.461-.138-.68923-.20792q-.34508-.10488-.68373-.21348c-.2604-.08374-.519-.16844-.77389-.25493-.17024-.058-.33862-.11688-.507-.17574-.29355-.10307-.58617-.20613-.87328-.3129l-.20335-.07728q-1.7061-.64323-3.2594-1.37481l-.0285-.01286-.00553-.00275q-.65427-.30785-1.28186-.6313l-.0276-.01376q-.62251-.32022-1.22019-.65612l-.03589-.01932q-.58939-.33126-1.15486-.67544l-.04968-.02943q-.55217-.33682-1.08033-.68651l-.07271-.04689q-.51483-.34239-1.0067-.69477l-.09385-.06537c-.3184-.2291-.62852-.46286-.934-.69841l-.115-.0874c-.29816-.23286-.58892-.46931-.87511-.70768l-.12238-.10031c-.28159-.23741-.55581-.47942-.82543-.72233l-.12331-.10857q-.45966-.41829-.89629-.84843l-.0046-.00461q-.43481-.42931-.8475-.8687l-.00093-.0009c-.19877-.21073-.38833-.427-.57974-.6414-.07545-.08464-.15459-.16839-.22912-.254v-.0009c-.32944-.37822-.64323-.76469-.94967-1.153-.1822-.23191-.3644-.46381-.53831-.69752v-.001l-.0175-.02393c-.22819-.30919-.449-.61927-.66345-.93307v-.001l-.01381-.01837-.00093-.00185q-.32435-.47482-.62756-.957v-.001l-.00646-.01011-.00092-.0009-.00183-.00371q-.30645-.48585-.59077-.98l-.0911-.16653c-.11688-.20337-.22545-.4086-.3359-.61383-.12513-.231-.25119-.4619-.3699-.6947-.10584-.20894-.20523-.41967-.30644-.62944-.11227-.23281-.22544-.46561-.33126-.70027-.09663-.21348-.1868-.42882-.27883-.64326-.10031-.23555-.20062-.47021-.29447-.70762-.0865-.21719-.16838-.43528-.2503-.65337-.08925-.23741-.17759-.47482-.26134-.71313-.07728-.22179-.15-.44263-.22269-.66443-.07728-.2392-.1546-.47847-.22727-.71773-.0681-.22359-.1316-.44724-.19419-.67269-.069-.24016-.13435-.48128-.19784-.72329-.058-.22449-.11225-.45089-.16656-.67724-.058-.242-.115-.485-.16746-.7288-.0497-.2264-.0957-.4546-.1408-.6819-.04878-.24387-.09478-.48588-.138-.72969-.04142-.22916-.07914-.45831-.11595-.68836q-.05936-.36572-.11042-.73155c-.03314-.23-.06257-.4601-.0911-.69016-.02946-.24387-.05889-.48768-.08374-.7325-.02393-.23-.04693-.4601-.06718-.69106-.02117-.24386-.04142-.48863-.05889-.7325-.01657-.23-.03128-.461-.04417-.691-.01289-.24477-.02485-.48864-.034-.73251-.00828-.23-.01656-.4601-.02117-.69015-.00553-.24292-.00921-.484-.011-.72605-.00092-.23095-.00185-.461 0-.69105q.00274-.36168.011-.7233c.0055-.22909.012-.45735.02025-.68645q.01377-.36032.03311-.72054.01794-.33951.03956-.67909c.01565-.23926.03407-.47763.05339-.715q.02623-.33818.058-.67359c.0221-.23741.047-.47392.07271-.71038.02485-.22179.04878-.44353.07546-.66533.02853-.2337.06074-.46746.092-.70026.03036-.21995.05982-.43989.092-.658.034-.2328.07175-.46375.10949-.6938.035-.21624.06993-.43158.10674-.646.0405-.23006.08467-.45915.12792-.68741.03957-.21073.07821-.42236.12053-.63213.046-.2273.09388-.45185.14263-.6764.0451-.20792.08835-.415.13527-.62113.05064-.22269.10492-.44353.15738-.66438.04968-.20247.09753-.40584.14723-.60551.05611-.22084.115-.43618.173-.65331.05246-.19787.104-.39574.15828-.5908.06074-.21624.12423-.42882.18587-.6423.05707-.19052.11135-.38283.16842-.57143.06531-.21168.13342-.41966.19876-.62854.06072-.185.11778-.3699.1776-.5521.06992-.208.1417-.41136.21255-.61653.06075-.17669.12149-.35614.18406-.53008.07453-.207.15184-.40855.2273-.61192.06256-.16563.12328-.33311.18677-.49689.081-.208.16381-.4095.24572-.61287.06165-.15277.12239-.30734.185-.45736.08742-.21073.17759-.4141.26686-.61927.05982-.13716.11778-.27611.1776-.41046.10121-.22449.20337-.44078.30551-.65887.0506-.10856.10031-.22084.15184-.32665q.2305-.48173.46746-.93953a46.20289 46.20289 0 0 1 26.409-23.00244l.00921-.03775c-.39753.05892-3.03667.83647-4.9314 1.5073-7.1454 2.457-18.91486 10.045-25.67011 22.93067-11.46209 21.866-2.53425 44.32088.19416 47.47169 0 0-1.12908-6.69819-.32851-5.48076.11042.16839.22362.32666.335.49139 7.658 11.24952 16.83058 11.313 11.77957 14.53006m-8.892 17.37909-.03038.01561.03774-.02117zm16.32245-15.2534a17.97944 17.97944 0 0 0 -4.42069 4.57532 79.65721 79.65721 0 0 1 14.001 6.81225 125.6346 125.6346 0 0 0 -17.25665-3.44157 24.22036 24.22036 0 0 1 6.354 7.94876 26.58335 26.58335 0 0 0 -21.34883-4.23664 41.47828 41.47828 0 0 1 22.67117-11.65812"/><path d="m125.79791 84.49119q-.62255-.32022-1.22021-.65606.59769.33538 1.22021.65606"/><path d="m124.54091 83.81575q-.58939-.33126-1.154-.67538.56459.34507 1.154.67538"/><path d="m134.13132 87.769c-.23191-.06807-.461-.13709-.69016-.207.22912.06993.45825.13985.69016.207"/><path d="m132.75836 87.34752c-.26044-.08368-.519-.16838-.7739-.25487q.38371.12973.7739.25487"/><path d="m127.10645 85.13625q-.65292-.30776-1.28186-.63124.628.32436 1.28186.63124"/><path d="m131.47743 86.91685c-.29354-.10306-.58709-.20613-.87328-.31284.28709.10671.57974.20978.87328.31284"/><path d="m135.57512 88.17017c-.1868-.04875-.36993-.10121-.55491-.15181.185.0506.36811.10306.55491.15181"/><path d="m130.40081 86.52673q-1.70471-.64315-3.26033-1.37475 1.55564.73152 3.26033 1.37475"/><path d="m107.53914 54.98473q-.01382-.34507-.0221-.691.0083.34643.0221.691"/><path d="m107.518 52.15328c.0055-.22909.011-.45729.01932-.68645-.00829.22916-.01382.45736-.01932.68645"/><path d="m107.506 53.56763q-.00277-.34643-.00092-.69105c-.00093.231-.00093.4601.00092.69105"/><path d="m107.57045 50.74719c.01194-.22634.0239-.45364.03865-.68-.01475.22635-.02671.45275-.03865.68"/><path d="m107.66431 49.35217q.02619-.33675.057-.67359-.03038.33683-.057.67359"/><path d="m107.96246 46.60255c.03036-.21989.05889-.43983.092-.65792-.03311.219-.06164.438-.092.65792"/><path d="m107.795 47.96815q.03585-.33261.07543-.66528-.04.33261-.07543.66528"/><path d="m108.14373 60.67346c-.04049-.2291-.07824-.45825-.11595-.6883.03771.23.07546.4592.11595.6883"/><path d="m108.42256 62.086c-.0497-.22724-.0957-.45454-.1408-.68274.0451.2282.0911.4555.1408.68274"/><path d="m108.7575 63.49205c-.058-.22545-.1132-.45179-.16658-.67724.05338.22545.10859.45179.16658.67724"/><path d="m107.91736 59.25451q-.04832-.34508-.09113-.69016.04279.34508.09113.69016"/><path d="m107.74252 57.831c-.02393-.23095-.047-.461-.06628-.69106.01932.23006.04235.46011.06628.69106"/><path d="m107.61738 56.40739q-.02486-.34508-.04417-.691.01929.34642.04417.691"/><path d="m109.61882 38.83139c.05611-.19046.11132-.38277.16838-.57053-.05706.18776-.11227.38007-.16838.57053"/><path d="m110.78747 35.32175c.06165-.16563.12239-.334.18588-.49779-.06349.16378-.12423.33216-.18588.49779"/><path d="m109.986 37.63148c.05889-.185.11685-.3708.17759-.5521-.06074.1822-.1187.36715-.17759.5521"/><path d="m111.21907 34.211c.06165-.15181.12239-.30734.185-.4573-.06257.15-.12331.30549-.185.4573"/><path d="m110.37522 36.4637c.06164-.17664.12146-.35609.184-.53093-.06257.17484-.12239.35429-.184.53093"/><path d="m112.15492 32.06513c.05061-.10761.10029-.21988.15182-.3257-.05153.10582-.10121.21809-.15182.3257"/><path d="m111.67089 33.1344c.05889-.13614.11778-.276.1776-.4104-.05982.13435-.11871.27426-.1776.4104"/><path d="m108.39771 43.91741c.04047-.21067.07821-.42236.12146-.63213-.04325.20977-.081.42146-.12146.63213"/><path d="m108.16305 45.25077c.035-.21528.06993-.43157.10674-.646-.03681.21438-.07178.43067-.10674.646"/><path d="m108.6618 42.60888c.04507-.207.08832-.415.13524-.62113-.04692.20613-.09017.41411-.13524.62113"/><path d="m108.95444 41.32332c.04876-.20242.09661-.40579.14721-.60546-.0506.19967-.09845.403-.14721.60546"/><path d="m109.14861 64.88707c-.0681-.22263-.1316-.44718-.19419-.67173.06259.22455.12609.4491.19419.67173"/><path d="m109.27374 40.06449c.05243-.19691.104-.39473.15828-.58984-.05432.19511-.10585.39293-.15828.58984"/><path d="m119.03624 80.0236c-.28162-.23741-.55492-.47847-.82454-.72233q.4031.36579.82454.72233"/><path d="m109.59857 66.26924q-.11457-.33126-.22179-.66438.10767.3327.22179.66438"/><path d="m110.11021 67.63573c-.08652-.21713-.16749-.43522-.2494-.65331.08191.219.16288.43618.2494.65331"/><path d="m110.68441 68.98661c-.09663-.21348-.1868-.42786-.27883-.6432.092.21534.1822.42972.27883.6432"/><path d="m116.33911 77.471q.41268.44035.84843.8687-.4362-.42924-.84936-.8687z"/><path d="m111.32121 70.31632c-.10584-.20888-.20523-.41865-.30644-.62848.10121.20983.2006.4196.30644.62848"/><path d="m122.18426 82.37748c-.34418-.22724-.67912-.4601-1.00763-.69471q.49276.35334 1.00763.69471"/><path d="m114.04227 74.7232c.17391.23466.35518.46656.53738.69757-.1822-.231-.36347-.46291-.53831-.69757z"/><path d="m120.03373 80.83244c-.29816-.23185-.588-.46926-.87421-.70763.28619.23837.576.47578.87421.70763"/><path d="m113.36039 73.76525q.32159.47069.66438.93312-.34368-.46243-.66438-.934z"/><path d="m115.53025 76.57558c.0736.08559.15366.16933.22912.254-.07546-.08464-.15552-.16838-.22912-.25487z"/><path d="m112.027 71.62485c-.11595-.20331-.22455-.40854-.3359-.61377.11135.20523.22.41046.3359.61377"/><path d="m117.19214 78.34421q.43616.42933.89536.84849-.45966-.41964-.89629-.84849z"/><path d="m112.712 72.775.001.001-.004-.005z"/><path d="m112.71809 72.78708q.30363.48181.62756.95795l.00093.00185q-.32436-.47616-.62849-.9607z"/><path d="m123.33637 83.11088c-.36811-.22449-.7279-.45454-1.08033-.68645q.52864.34922 1.08033.68645"/><path d="m121.0837 81.6174c-.31932-.2291-.62851-.46286-.934-.69752.30458.23466.61562.46842.934.69752"/><path d="m177.39857 108.8298c-2.07692-1.47691-4.2753-3.044-6.45341-4.63507l-.02118-.01657a39.89768 39.89768 0 0 0 -16.03921 4.233.7431.7431 0 0 0 -.22915.184c-.53.3193-.322 1.1438.42882 1.47506a51.99862 51.99862 0 0 1 11.43081 7.17857 22.748 22.748 0 0 1 10.88332-8.419"/><path d="m115.808 91.213.116-.051h-.016l-.123.044z"/><path d="m111.678 106.588.008-.006-.039.023z"/><path d="m159.04685 94.619-.069.00556z"/><path d="m115.90753 91.1618a25.39127 25.39127 0 0 0 4.66268-1.95263c-.22452.14356-2.12935.72509-4.93322 1.95263l.03589.00921c.12238-.0064.20244-.00825.23465-.00921"/><path d="m115.78512 91.206.12239-.04415c-.03221.0009-.11228.00275-.23466.00921z"/><path d="m114.75727 91.58506c.12421-.023.25674-.0506.37359-.06992h.00092c.43986-.07358.831-.12239 1.16683-.14817-.16013-.057-.32668-.10211-.49046-.15366l-.023-.00736q-.50519.18222-1.02785.37911"/><path d="m115.78512 91.206-.11227-.03494-.03589-.00921q-.4776.20842-.99016.44354l.11045-.02022c.3469-.1307.69105-.25769 1.02787-.37917"/><path d="m114.39931 91.71941c-1.511.70212-3.21705 1.57172-5.02343 2.63273l-.02668.0451q-2.00838 1.16364-3.88328 2.50294c-.52913.41686-1.08494.82911-1.66282 1.24232.54292-.42793 1.0978-.83922 1.66282-1.24232l.23649-.19135a45.11327 45.11327 0 0 0 -15.24047 17.65417 58.05527 58.05527 0 0 1 13.25559-16.08066 46.8891 46.8891 0 0 1 5.73013-3.88511 60.259 60.259 0 0 1 5.68227-2.8821c-.11685.01932-.24937.04695-.37268.069-.11963.0451-.23741.08925-.35794.13525"/><path d="m114.75727 91.58506-.11044.02118c-.08189.03684-.16378.07453-.24752.11412.12053-.04695.23833-.0902.358-.1353"/><path d="m109.3492 94.39814.02761-.045c-1.19076.69937-2.42383 1.48242-3.6744 2.35663l-.23649.19141q1.87443-1.33617 3.88328-2.503"/><path d="m105.46592 96.90114c-.56409.40214-1.1199.81439-1.66192 1.24141.577-.4123 1.13279-.82456 1.66192-1.24141"/><path d="m114.75727 91.58506c.12329-.023.25674-.0506.37359-.06992-.11685.01932-.24938.04695-.37359.06992"/><path d="m114.757 91.585-.11.021z"/></g><path d="m105.32972 102.99291a26.58162 26.58162 0 0 1 21.34881 4.23759 24.22659 24.22659 0 0 0 -6.354-7.94971 125.58136 125.58136 0 0 1 17.25575 3.44163 79.61332 79.61332 0 0 0 -14.00006-6.81231 17.99537 17.99537 0 0 1 4.42069-4.57526 41.48235 41.48235 0 0 0 -22.67115 11.65806" fill="#f9b118"/><path d="m162.45438 94.43589-.01657-.00826a65.64907 65.64907 0 0 1 -7.37455-5.26637l-.162-.10486a2.66837 2.66837 0 0 0 .0966.42511l.0175.03775c.43342 1.3315 1.92323 3.09649 4.05351 5.09793l.00736.00735-.02115.00186.01379.01381.09663.10031.04233.04325.10581.10121.06349.06072.14909.138.06072.05611c.07178.06627.15091.13805.23466.21444l.138.12328.13806.12334.18219.16192.10675.09385c.358.31655.76744.67269 1.20639 1.049l.00183.00186c.57788.496 1.20457 1.02417 1.823 1.53487l.0055.00461q.813.65569 1.66925 1.3233c1.86067 1.452 3.84739 2.93637 5.85254 4.40132l.00736.00556.092-.00556c4.88538 3.56856 19.00689 10.15357 31.49687 27.93109h13.02466c-6.59419-16.72111-23.10272-22.0491-44.73774-33.66211.14909.21073.30183.42236.46564.63859-3.51888-1.82474-7.4592-3.93571-8.83951-4.64338"/><path d="m177.39857 108.8298.02115.01477c2.572 1.82935 20.978 13.03562 23.18832 23.25822h1.93337c-12.49-17.77747-26.61149-24.36158-31.4969-27.931l-.092.0055c2.18363 1.59469 4.38662 3.16552 6.4672 4.64429l-.02115.00825"/><path d="m159.055 94.627.021-.002-.008-.007-.021.002z"/><path d="m159.069 94.61719c-2.12938-2.00234-3.61919-3.76733-4.05354-5.09793l-.01654-.03679.01654.05981a4.095 4.095 0 0 0 .21073.51807l.13252.24112c.05614.104.10674.20612.17209.31469.07175.11688.15827.23926.24016.36069l.15367.231c.09571.13339.20613.27419.31472.41315l.162.21168c.115.1435.24477.29167.37176.43983l.185.21719c.13159.14906.276.30273.41868.4555l.21259.23095c.15549.16288.323.33126.48953.49875l.2098.21258c.16934.16748.34969.33957.53006.51071l.22913.22084.02117-.00185"/><path d="m159.04778 94.619.02114-.00179z"/><path d="m159.82167 95.35424.138.12424z"/><path d="m159.31372 94.88588.06346.06077z"/><path d="m159.5263 95.08369.06072.05617z"/><path d="m160.09773 95.60086.18219.162z"/><path d="m159.2079 94.78372-.04235-.0423z"/><path d="m160.38669 95.85759c.35887.3166.76744.67179 1.20637 1.04815-.43893-.37546-.8475-.73155-1.20637-1.04815"/><path d="m161.59492 96.90754c.57881.49695 1.20361 1.02423 1.82384 1.53583-.6193-.51071-1.245-1.03984-1.82384-1.53583"/><path d="m154.90134 89.05634-.047-.03033a.77319.77319 0 0 0 .058.24477l.08557.21073a2.56984 2.56984 0 0 1 -.0966-.42517"/><path d="m162.43784 94.42763.01654.00831c1.38031.70858 5.32065 2.81859 8.84046 4.64429-.16473-.21624-.31747-.42882-.46656-.6386-5.0004-2.68429-10.275-5.7053-15.76406-9.28031a65.50417 65.50417 0 0 0 7.37362 5.26631"/><path d="m157.3767 92.94515c-.14266-.15271-.28712-.30638-.41778-.45454.13066.14816.27512.30183.41778.45454"/><path d="m158.07882 93.67485c-.16659-.16743-.334-.33587-.48956-.49875.15552.16288.323.33132.48956.49875"/><path d="m156.2393 91.62095c-.10767-.1389-.219-.2788-.31472-.41315.09571.13435.20705.27425.31472.41315"/><path d="m155.35866 90.30231-.13252-.24106z"/><path d="m155.77091 90.97775c-.08191-.12143-.16841-.24381-.24019-.36069.07178.11688.15828.23926.24019.36069"/><path d="m156.773 92.27247c-.127-.14721-.25676-.29628-.37179-.43893.115.14265.2448.29172.37179.43893"/><path d="m158.81865 94.3991c-.17945-.17114-.35982-.34323-.53006-.51071.17024.16748.35061.33957.53006.51071"/><path d="m154.9133 89.27078c.03218.08835.07268.1813.10214.2715l-.01657-.05981z"/><path d="m170.94516 104.1717c-2.00515-1.465-3.9928-2.94923-5.85254-4.40132q-.8544-.66674-1.66925-1.32324c.5742.47481 1.1429.93492 1.65914 1.33886l.01011.00735c1.85331 1.44659 3.8336 2.92536 5.83136 4.38576l.02854-.00185z"/><path d="m177.39857 108.8298.02115-.00825c-2.08058-1.47877-4.28357-3.0496-6.4672-4.64429l-.02854.0009.02118.01657c2.17811 1.591 4.37649 3.15816 6.45341 4.63507"/></g></svg>